<svg xmlns="http://www.w3.org/2000/svg" width="60" height="60" viewBox="0 0 60 60">
    <g fill="none" fill-rule="evenodd">
        <path fill="#CCE8FF" d="M30 0c16.568 0 30 13.432 30 30 0 16.569-13.432 30-30 30C13.432 60 0 46.568 0 30 0 13.432 13.432 0 30 0z"/>
        <path fill="#B8D1E6" d="M8.755 20.885l30.678-8.22a1.807 1.807 0 0 1 2.218 1.268l6.056 21.6a1.807 1.807 0 0 1-1.288 2.209l-30.676 8.22a1.807 1.807 0 0 1-2.22-1.269l-6.055-21.6a1.807 1.807 0 0 1 1.287-2.208z"/>
        <path fill="#B8D1E6" d="M45.583 20.808c1.002 0 1.814.806 1.814 1.8v22.398c0 .993-.812 1.8-1.814 1.8h-31.76a1.807 1.807 0 0 1-1.815-1.8V22.608c0-.994.812-1.8 1.815-1.8h31.76z"/>
        <path fill="#FFF" d="M9.355 18.685l30.678-8.22a1.807 1.807 0 0 1 2.218 1.268l6.056 22.6a1.807 1.807 0 0 1-1.288 2.209l-30.676 8.22a1.807 1.807 0 0 1-2.22-1.269l-6.055-22.6a1.807 1.807 0 0 1 1.287-2.208z"/>
        <path fill="#B8D1E6" d="M47.397 36.39v-5.453l-2.982-11.13H13.823a1.807 1.807 0 0 0-1.815 1.8v13.99l2.116 7.896a1.806 1.806 0 0 0 2.219 1.268l30.677-8.22c.134-.035.259-.088.377-.15z"/>
        <path fill="#B8D1E6" d="M11.868 20.482l26.869-7.2a1.389 1.389 0 0 1 1.702.98l5.029 18.769a1.39 1.39 0 0 1-.985 1.7L17.615 41.93a1.39 1.39 0 0 1-1.702-.98L10.884 22.18a1.39 1.39 0 0 1 .984-1.7z"/>
        <path fill="#B8D1E6" d="M41.925 19.808H14.383l-1.783.478a1.782 1.782 0 0 0-.592 1.322v4.769l3.905 14.573a1.39 1.39 0 0 0 1.703.98l26.868-7.198a1.39 1.39 0 0 0 .985-1.7l-3.544-13.224z"/>
        <path fill="#FFF" d="M15.023 18.608h31.76c1.002 0 1.814.806 1.814 1.8v23.398c0 .993-.812 1.8-1.814 1.8h-31.76a1.807 1.807 0 0 1-1.815-1.8V20.408c0-.994.812-1.8 1.815-1.8z"/>
        <path fill="#B3DDFF" fill-rule="nonzero" d="M16.985 20.995h27.816c.768 0 1.391.621 1.391 1.387v19.43c0 .766-.623 1.387-1.39 1.387H16.984c-.768 0-1.39-.62-1.39-1.387v-19.43c-.001-.766.622-1.387 1.39-1.387z"/>
        <path fill="#22A860" d="M18.003 36.593c-.833 0-1.637.07-2.409.188v5.03c0 .767.623 1.388 1.39 1.388h10.49a3.48 3.48 0 0 0 .131-.901c.001-3.15-4.299-5.705-9.602-5.705z"/>
        <path fill="#25B869" d="M46.192 41.812v-7.47a24.319 24.319 0 0 0-6.039-.742c-8.64 0-15.646 4.298-15.646 9.6h20.294a1.39 1.39 0 0 0 1.391-1.388z"/>
        <path fill="#FFBA19" d="M15.594 22.382v6.95c.295.036.593.06.898.06 4.142 0 7.5-3.356 7.5-7.496a7.57 7.57 0 0 0-.06-.901h-6.946a1.39 1.39 0 0 0-1.392 1.387z"/>
    </g>
</svg>
