<?xml version="1.0" ?><!DOCTYPE svg  PUBLIC '-//W3C//DTD SVG 1.1//EN'  'http://www.w3.org/Graphics/SVG/1.1/DTD/svg11.dtd'><svg width="24px" height="24px" viewBox="0 0 24 24" version="1.1" xmlns="http://www.w3.org/2000/svg"><path fill="#DB4A39" d="M7.617 10.017v2.971s2.926-.005 4.121-.005c-.647 1.922-1.648 2.97-4.12 2.97A4.423 4.423 0 0 1 3.166 11.5a4.427 4.427 0 0 1 4.45-4.454c1.325 0 2.178.458 2.961 1.095.63-.62.577-.707 2.173-2.19A7.676 7.676 0 0 0 7.623 4C3.414 4 0 7.36 0 11.5 0 15.64 3.414 19 7.623 19c6.293 0 7.83-5.392 7.317-8.983H7.617zm13.963.903V8.5h-2.082v2.42H17v2.082h2.498V15.5h2.082v-2.498H24V10.92h-2.42z"></path></svg>