<?xml version="1.0" encoding="UTF-8"?>
<svg width="16px" height="11px" viewBox="0 0 16 11" version="1.1" xmlns="http://www.w3.org/2000/svg" xmlns:xlink="http://www.w3.org/1999/xlink">
    <!-- Generator: Sketch 54.1 (76490) - https://sketchapp.com -->
    <title>arrow-pointing-to-right</title>
    <desc>Created with Sketch.</desc>
    <g id="Page-1" stroke="none" stroke-width="1" fill="none" fill-rule="evenodd">
        <g id="header-" transform="translate(-50.000000, -693.000000)" fill="#6B7571" fill-rule="nonzero">
            <g id="Group-22" transform="translate(50.000000, 691.000000)">
                <g id="arrow-pointing-to-right" transform="translate(8.000000, 7.600000) scale(-1, 1) translate(-8.000000, -7.600000) translate(0.000000, 2.000000)">
                    <path d="M15.7820799,4.9506286 L11.0207508,0.216625044 C10.7302502,-0.0722083479 10.2591167,-0.0722083479 9.96861615,0.216625044 C9.67805604,0.505517611 9.67805604,0.973828912 9.96861615,1.26272148 L13.4599202,4.73398876 L0.743957669,4.73398876 C0.333114486,4.73398876 0,5.06519148 0,5.47367681 C0,5.88210297 0.333114486,6.21336487 0.743957669,6.21336487 L13.4599202,6.21336487 L9.96873518,9.68463215 C9.67817507,9.97352472 9.67817507,10.441836 9.96873518,10.7307286 C10.1139557,10.8750565 10.3044089,10.9473684 10.4948025,10.9473684 C10.6851962,10.9473684 10.8755898,10.8750565 11.0208699,10.7307286 L15.7820799,5.99672503 C16.07264,5.70783246 16.07264,5.23952116 15.7820799,4.9506286 Z" id="Path"></path>
                </g>
            </g>
        </g>
    </g>
</svg>