<?xml version="1.0" encoding="UTF-8"?>
<svg width="16px" height="16px" viewBox="0 0 16 16" version="1.1" xmlns="http://www.w3.org/2000/svg" xmlns:xlink="http://www.w3.org/1999/xlink">
    <!-- Generator: Sketch 54.1 (76490) - https://sketchapp.com -->
    <title>delete</title>
    <desc>Created with Sketch.</desc>
    <g id="Page-1" stroke="none" stroke-width="1" fill="none" fill-rule="evenodd">
        <g id="work-history-4" transform="translate(-645.000000, -241.000000)" fill="#429FF0" fill-rule="nonzero">
            <g id="Group-9" transform="translate(50.000000, 230.000000)">
                <g id="delete" transform="translate(595.000000, 11.000000)">
                    <g id="Group" transform="translate(0.000000, 2.656250)">
                        <polygon id="Path" points="10.6401822 3.06218105 9.37318828 3.01740252 9.09850116 10.2454487 10.3654951 10.2900444"></polygon>
                        <rect id="Rectangle" x="6.92164761" y="3.03979179" width="1.2678159" height="7.22807662"></rect>
                        <polygon id="Path" points="6.01238866 10.2452659 5.73770153 3.01718929 4.47070758 3.06199828 4.74542631 10.2900444"></polygon>
                        <path d="M0.011981404,0.0264101921 L0.011981404,1.2480415 L1.33306555,1.2480415 L2.38110646,12.7239858 C2.40984286,13.0393546 2.68392934,13.28125 3.01248536,13.28125 L12.0772552,13.28125 C12.4058429,13.28125 12.680119,13.0391718 12.7086341,12.7237726 L13.7567066,1.2480415 L15.0991297,1.2480415 L15.0991297,0.0264101921 L0.011981404,0.0264101921 Z M11.4966155,12.0596187 L3.59296699,12.0596187 L2.60574988,1.2480415 L12.4840539,1.2480415 L11.4966155,12.0596187 Z" id="Shape"></path>
                    </g>
                    <path d="M9.61562412,0 L5.495487,0 C4.91593547,0 4.44444444,0.410884347 4.44444444,0.915938825 L4.44444444,2.65625 L5.70569551,2.65625 L5.70569551,1.09912659 L9.40541561,1.09912659 L9.40541561,2.65625 L10.6666667,2.65625 L10.6666667,0.915938825 C10.6666667,0.410884347 10.1951756,0 9.61562412,0 Z" id="Path"></path>
                </g>
            </g>
        </g>
    </g>
</svg>