<?xml version="1.0" encoding="UTF-8"?>
<svg width="16px" height="16px" viewBox="0 0 16 16" version="1.1" xmlns="http://www.w3.org/2000/svg" xmlns:xlink="http://www.w3.org/1999/xlink">
    <!-- Generator: Sketch 54.1 (76490) - https://sketchapp.com -->
    <title>add</title>
    <desc>Created with Sketch.</desc>
    <g id="Page-1" stroke="none" stroke-width="1" fill="none" fill-rule="evenodd">
        <g id="work-history-2" transform="translate(-50.000000, -811.000000)" fill="#429FF0" fill-rule="nonzero">
            <g id="Group-9" transform="translate(50.000000, 797.000000)">
                <g id="Group-7" transform="translate(0.000000, 14.000000)">
                    <g id="add">
                        <path d="M8,0 C3.58853125,0 0,3.58853125 0,8 C0,12.4114687 3.58853125,16 8,16 C12.4114687,16 16,12.4108437 16,8 C16,3.58915625 12.4114687,0 8,0 Z M8,14.7606563 C4.27265625,14.7606563 1.23934375,11.7279688 1.23934375,8 C1.23934375,4.27203125 4.27265625,1.23934375 8,1.23934375 C11.7273438,1.23934375 14.7606563,4.27203125 14.7606563,8 C14.7606563,11.7279688 11.7279688,14.7606563 8,14.7606563 Z" id="Shape"></path>
                        <path d="M11.0302928,7.39392921 L8.60607079,7.39392921 L8.60607079,4.96970716 C8.60607079,4.63516097 8.33515745,4.36363636 8,4.36363636 C7.66484255,4.36363636 7.39392921,4.63516097 7.39392921,4.96970716 L7.39392921,7.39392921 L4.96970716,7.39392921 C4.6345497,7.39392921 4.36363636,7.66545381 4.36363636,8 C4.36363636,8.33454619 4.6345497,8.60607079 4.96970716,8.60607079 L7.39392921,8.60607079 L7.39392921,11.0302928 C7.39392921,11.364839 7.66484255,11.6363636 8,11.6363636 C8.33515745,11.6363636 8.60607079,11.364839 8.60607079,11.0302928 L8.60607079,8.60607079 L11.0302928,8.60607079 C11.3654503,8.60607079 11.6363636,8.33454619 11.6363636,8 C11.6363636,7.66545381 11.3654503,7.39392921 11.0302928,7.39392921 Z" id="Path"></path>
                    </g>
                </g>
            </g>
        </g>
    </g>
</svg>