<?xml version="1.0" encoding="UTF-8"?>
<svg width="24px" height="24px" viewBox="0 0 24 24" version="1.1" xmlns="http://www.w3.org/2000/svg" xmlns:xlink="http://www.w3.org/1999/xlink">
    <!-- Generator: Sketch 47.1 (45422) - http://www.bohemiancoding.com/sketch -->
    <title>google</title>
    <desc>Created with Sketch.</desc>
    <defs></defs>
    <g id="Sign-up" stroke="none" stroke-width="1" fill="none" fill-rule="evenodd">
        <g id="Sign-up-&gt;-1-Copy-1412" transform="translate(-706.000000, -365.000000)">
            <g id="Socials" transform="translate(690.000000, 221.000000)">
                <g id="button-Copy-2" transform="translate(0.000000, 128.000000)">
                    <g id="Icon-/-Google+" transform="translate(16.000000, 16.000000)">
                        <rect id="Rectangle-4" x="0" y="0" width="24" height="24"></rect>
                        <path d="M8.35243972,11.2128588 L14.4531014,11.2128588 C14.8778529,14.3278165 13.5961639,19 8.35243972,19 C4.84439819,19 2,16.0895674 2,12.4997469 C2,8.9099264 4.84439819,6 8.35243972,6 C9.998414,6 11.4981786,6.64040656 12.6267192,7.69138206 C11.29745,8.97624518 11.3410651,9.05268897 10.8186752,9.58728922 C10.1659356,9.03497021 9.45421654,8.63857627 8.35243972,8.63857627 C6.26833197,8.63857627 4.64168711,10.3674208 4.64168711,12.4997469 C4.64168711,14.6325792 6.26833197,16.3614237 8.35243972,16.3614237 C10.4117662,16.3614237 11.248383,15.4527045 11.786633,13.7835975 C10.7929026,13.7835975 8.35243972,13.7871412 8.35243972,13.7871412 L8.35243972,11.2128588 Z M19.7989245,11.3414463 L22,11.3414463 L22,12.9503096 L19.7989245,12.9503096 L19.7989245,15.267417 L18.2267985,15.267417 L18.2267985,12.9503096 L15.9622829,12.9503096 L15.9622829,11.3414463 L18.2267985,11.3414463 L18.2267985,9.08913899 L19.7989245,9.08913899 L19.7989245,11.3414463 Z" id="Google+" fill="#FFFFFF"></path>
                    </g>
                </g>
            </g>
        </g>
    </g>
</svg>