<?xml version="1.0" encoding="UTF-8"?>
<svg width="26px" height="26px" viewBox="0 0 26 26" version="1.1" xmlns="http://www.w3.org/2000/svg" xmlns:xlink="http://www.w3.org/1999/xlink">
    <!-- Generator: Sketch 47.1 (45422) - http://www.bohemiancoding.com/sketch -->
    <title>icon-facebook</title>
    <desc>Created with Sketch.</desc>
    <defs></defs>
    <g id="Sign-up" stroke="none" stroke-width="1" fill="none" fill-rule="evenodd">
        <g id="Sign-up-&gt;-1-Copy-15" transform="translate(-547.000000, -226.000000)">
            <g id="picture" transform="translate(480.000000, 226.000000)">
                <g id="icon" transform="translate(67.000000, 0.000000)">
                    <circle id="Oval-4" fill="#537BC0" cx="13" cy="13" r="13"></circle>
                    <g id="Icon-/-Facebook" transform="translate(5.000000, 5.000000)">
                        <rect id="Rectangle-4" x="0" y="0" width="16" height="16"></rect>
                        <path d="M9.02288131,15.6597298 L9.02288131,9.2735521 L11.166489,9.2735521 L11.4876708,6.78457337 L9.02288131,6.78457337 L9.02288131,5.19577753 C9.02288131,4.47527187 9.22322687,3.98430386 10.256399,3.98430386 L11.5743674,3.98385466 L11.5743674,1.75765387 C11.3461711,1.72755794 10.5641047,1.65972979 9.65401475,1.65972979 C7.75387636,1.65972979 6.45297783,2.81954626 6.45297783,4.94961974 L6.45297783,6.78457337 L4.30397971,6.78457337 L4.30397971,9.2735521 L6.45297783,9.2735521 L6.45297783,15.6597298" id="Facebook" fill="#FFFFFF"></path>
                    </g>
                </g>
            </g>
        </g>
    </g>
</svg>