<?xml version="1.0" encoding="UTF-8"?>
<svg width="26px" height="26px" viewBox="0 0 26 26" version="1.1" xmlns="http://www.w3.org/2000/svg" xmlns:xlink="http://www.w3.org/1999/xlink">
    <!-- Generator: Sketch 47.1 (45422) - http://www.bohemiancoding.com/sketch -->
    <title>icon-google</title>
    <desc>Created with Sketch.</desc>
    <defs></defs>
    <g id="Sign-up" stroke="none" stroke-width="1" fill="none" fill-rule="evenodd">
        <g id="Sign-up-&gt;-1-Copy-15" transform="translate(-614.000000, -351.000000)">
            <g id="picture" transform="translate(480.000000, 226.000000)">
                <g id="icon-copy" transform="translate(134.000000, 125.000000)">
                    <circle id="Oval-4" fill="#D34836" cx="13" cy="13" r="13"></circle>
                    <g id="Icon-/-Google+" transform="translate(5.000000, 5.000000)">
                        <g>
                            <rect id="Rectangle-4" x="0" y="0" width="16" height="16"></rect>
                            <path d="M5.56829315,7.47523917 L9.63540092,7.47523917 C9.91856863,9.55187767 9.06410924,12.6666667 5.56829315,12.6666667 C3.22959879,12.6666667 1.33333333,10.7263782 1.33333333,8.33316458 C1.33333333,5.93995093 3.22959879,4 5.56829315,4 C6.66560933,4 7.66545238,4.42693771 8.4178128,5.12758804 C7.53163334,5.98416345 7.56071007,6.03512598 7.21245013,6.39152615 C6.77729041,6.02331347 6.30281103,5.75905085 5.56829315,5.75905085 C4.17888798,5.75905085 3.09445807,6.9116139 3.09445807,8.33316458 C3.09445807,9.75505277 4.17888798,10.9076158 5.56829315,10.9076158 C6.94117744,10.9076158 7.49892201,10.301803 7.85775531,9.18906499 C7.19526842,9.18906499 5.56829315,9.1914275 5.56829315,9.1914275 L5.56829315,7.47523917 Z M13.199283,7.56096421 L14.6666667,7.56096421 L14.6666667,8.63353973 L13.199283,8.63353973 L13.199283,10.178278 L12.151199,10.178278 L12.151199,8.63353973 L10.6415219,8.63353973 L10.6415219,7.56096421 L12.151199,7.56096421 L12.151199,6.05942599 L13.199283,6.05942599 L13.199283,7.56096421 Z" id="Google+" fill="#FFFFFF"></path>
                        </g>
                    </g>
                </g>
            </g>
        </g>
    </g>
</svg>