<?xml version="1.0" encoding="UTF-8"?>
<svg width="26px" height="26px" viewBox="0 0 26 26" version="1.1" xmlns="http://www.w3.org/2000/svg" xmlns:xlink="http://www.w3.org/1999/xlink">
    <!-- Generator: Sketch 48.2 (47327) - http://www.bohemiancoding.com/sketch -->
    <title>icon-linkedin</title>
    <desc>Created with Sketch.</desc>
    <defs></defs>
    <g id="Sign-up-&gt;-1-Copy-17" stroke="none" stroke-width="1" fill="none" fill-rule="evenodd" transform="translate(-514.000000, -342.000000)">
        <g id="picture" transform="translate(514.000000, 217.000000)">
            <g id="icon-linkedin" transform="translate(0.000000, 125.000000)">
                <circle id="Oval-4" fill="#0077B5" cx="13" cy="13" r="13"></circle>
                <g id="Icon-/-LinkedIn" transform="translate(5.000000, 5.000000)">
                    <g id="Icon-/-Facebook">
                        <rect id="Rectangle-4" x="0" y="0" width="16" height="16"></rect>
                    </g>
                    <g id="linkedin-icon" fill="#FFFFFF">
                        <path d="M4.87549778,5.93239654 L4.87549778,14.0897115 L2.16054207,14.0897115 L2.16054207,5.93239654 L4.87549778,5.93239654 Z M5.05431161,3.40900995 C5.05431161,4.19226248 4.46473562,4.81899444 3.51807415,4.81899444 L3.50072411,4.81899444 C2.58925068,4.81899444 2,4.19226248 2,3.40900995 C2,2.60919039 2.60719713,2 3.53596637,2 C4.46473562,2 5.03669048,2.60919039 5.05431161,3.40900995 Z M14.6666667,9.41255638 L14.6665582,14.0897115 L11.951711,14.0897115 L11.951711,9.72554338 C11.951711,8.629358 11.558841,7.88135102 10.5760156,7.88135102 C9.82595172,7.88135102 9.37918823,8.38561687 9.18297014,8.872666 C9.11118435,9.0472154 9.09356322,9.29041512 9.09356322,9.53421038 L9.09356322,14.089928 L6.3782822,14.089928 C6.3782822,14.089928 6.41406666,6.69805336 6.3782822,5.93261311 L9.09356322,5.93261311 L9.09356322,7.08802834 C9.45390183,6.53259959 10.099269,5.74084699 11.5407319,5.74084699 C13.3272979,5.74084699 14.6666667,6.90698206 14.6666667,9.41255638 Z" id="Shape"></path>
                    </g>
                </g>
            </g>
        </g>
    </g>
</svg>