<?xml version="1.0" encoding="UTF-8"?>
<svg width="24px" height="24px" viewBox="0 0 24 24" version="1.1" xmlns="http://www.w3.org/2000/svg" xmlns:xlink="http://www.w3.org/1999/xlink">
    <!-- Generator: Sketch 48.2 (47327) - http://www.bohemiancoding.com/sketch -->
    <title>linkedin</title>
    <desc>Created with Sketch.</desc>
    <defs></defs>
    <g id="Icon-/-LinkedIn" stroke="none" stroke-width="1" fill="none" fill-rule="evenodd">
        <g id="linkedin-icon" fill="#FFFFFF">
            <path d="M7.31324667,8.89859481 L7.31324667,21.1345672 L3.24081311,21.1345672 L3.24081311,8.89859481 L7.31324667,8.89859481 Z M7.58146742,5.11351493 C7.58146742,6.28839372 6.69710343,7.22849166 5.27711122,7.22849166 L5.25108616,7.22849166 C3.88387602,7.22849166 3,6.28839372 3,5.11351493 C3,3.91378559 3.91079569,3 5.30394956,3 C6.69710343,3 7.55503572,3.91378559 7.58146742,5.11351493 Z M22,14.1188346 L21.9998373,21.1345672 L17.9275664,21.1345672 L17.9275664,14.5883151 C17.9275664,12.944037 17.3382615,11.8220265 15.8640234,11.8220265 C14.7389276,11.8220265 14.0687823,12.5784253 13.7744552,13.308999 C13.6667765,13.5708231 13.6403448,13.9356227 13.6403448,14.3013156 L13.6403448,21.134892 L9.56742331,21.134892 C9.56742331,21.134892 9.62109999,10.04708 9.56742331,8.89891966 L13.6403448,8.89891966 L13.6403448,10.6320425 C14.1808527,9.79889939 15.1489036,8.61127048 17.3110979,8.61127048 C19.9909469,8.61127048 22,10.3604731 22,14.1188346 Z" id="Shape"></path>
        </g>
    </g>
</svg>
