<?xml version="1.0" encoding="iso-8859-1"?>
<!-- Generator: Adobe Illustrator 22.1.0, SVG Export Plug-In . SVG Version: 6.00 Build 0)  -->
<svg xmlns="http://www.w3.org/2000/svg" xmlns:xlink="http://www.w3.org/1999/xlink" version="1.1" id="Layer_1" x="0px" y="0px" viewBox="0 0 100 100" style="enable-background:new 0 0 100 100;" xml:space="preserve" width="500px" height="500px">
<g>
	<circle style="fill:#9D9FCE;" cx="13" cy="29" r="2"/>
	<circle style="fill:#F1BC19;" cx="77" cy="13" r="1"/>
	<circle style="fill:#E4E4F9;" cx="50" cy="50" r="37"/>
	<circle style="fill:#F1BC19;" cx="83" cy="15" r="4"/>
	<circle style="fill:#9D9FCE;" cx="87" cy="24" r="2"/>
	<circle style="fill:#FBCD59;" cx="81" cy="76" r="2"/>
	<circle style="fill:#FBCD59;" cx="15" cy="63" r="4"/>
	<circle style="fill:#9D9FCE;" cx="25" cy="87" r="2"/>
	<circle style="fill:#FFFFFF;" cx="18.5" cy="53.5" r="2.5"/>
	<circle style="fill:#F1BC19;" cx="21" cy="67" r="1"/>
	<circle style="fill:#FFFFFF;" cx="80" cy="34" r="1"/>
</g>
<g>
	<path style="fill:#C0D078;" d="M65,28c3.86,0,7,3.14,7,7v30c0,3.86-3.14,7-7,7H35c-3.86,0-7-3.14-7-7V35c0-3.86,3.14-7,7-7H65"/>
	<path style="fill:#472B29;" d="M65,28.4c3.639,0,6.6,2.961,6.6,6.6v30c0,3.639-2.961,6.6-6.6,6.6H35c-3.639,0-6.6-2.961-6.6-6.6V35   c0-3.639,2.961-6.6,6.6-6.6H65 M65,27H35c-4.418,0-8,3.582-8,8v30c0,4.418,3.582,8,8,8h30c4.418,0,8-3.582,8-8V35   C73,30.582,69.418,27,65,27L65,27z"/>
	<path style="fill:#FDFCEE;" d="M63,69H37c-3.309,0-6-2.691-6-6V37c0-3.309,2.691-6,6-6h26c3.309,0,6,2.691,6,6v26   C69,66.309,66.309,69,63,69z"/>
	<g>
		<path style="fill:#472B29;" d="M63,69H37c-3.309,0-6-2.691-6-6V37c0-3.309,2.691-6,6-6h24.625C61.832,31,62,31.168,62,31.375    s-0.168,0.375-0.375,0.375H37c-2.895,0-5.25,2.355-5.25,5.25v26c0,2.895,2.355,5.25,5.25,5.25h26c2.895,0,5.25-2.355,5.25-5.25    V48.375c0-0.207,0.168-0.375,0.375-0.375S69,48.168,69,48.375V63C69,66.309,66.309,69,63,69z"/>
		<path style="fill:#472B29;" d="M68.625,42c-0.207,0-0.375-0.168-0.375-0.375v-1.278c0-0.207,0.168-0.375,0.375-0.375    S69,40.14,69,40.347v1.278C69,41.832,68.832,42,68.625,42z"/>
		<path style="fill:#472B29;" d="M68.625,47c-0.207,0-0.375-0.168-0.375-0.375v-3.25c0-0.207,0.168-0.375,0.375-0.375    S69,43.168,69,43.375v3.25C69,46.832,68.832,47,68.625,47z"/>
	</g>
</g>
<g>
	<g>
		<circle style="fill:#E1E0D8;" cx="54" cy="46" r="8.625"/>
		<circle style="fill:#A8DBDB;" cx="54" cy="46" r="6.75"/>
		<path style="fill:#88AE45;" d="M46.039,53.961c-0.781-0.781-2.047-0.781-2.828,0c-0.563,0.563-4.686,4.686-5.25,5.25    c-0.781,0.781-0.781,2.047,0,2.828c0.781,0.781,2.047,0.781,2.828,0c0.564-0.564,4.687-4.687,5.25-5.25    C46.82,56.008,46.82,54.742,46.039,53.961z"/>
		<path style="fill:#D1DC82;" d="M46.039,56.789c0.781-0.781,0.781-2.047,0-2.828c-0.781-0.781-2.047-0.781-2.828,0l0,0    L46.039,56.789z"/>
	</g>
	<g>
		<path style="fill:#472B29;" d="M54,55c-4.962,0-9-4.038-9-9s4.038-9,9-9s9,4.038,9,9S58.962,55,54,55z M54,37.75    c-4.549,0-8.25,3.701-8.25,8.25s3.701,8.25,8.25,8.25s8.25-3.701,8.25-8.25S58.549,37.75,54,37.75z"/>
		<path style="fill:#472B29;" d="M54,53c-3.86,0-7-3.14-7-7s3.14-7,7-7s7,3.14,7,7S57.86,53,54,53z M54,39.5    c-3.584,0-6.5,2.916-6.5,6.5s2.916,6.5,6.5,6.5s6.5-2.916,6.5-6.5S57.584,39.5,54,39.5z"/>
		
			<rect x="45.801" y="52.484" transform="matrix(0.7071 -0.7071 0.7071 0.7071 -23.6948 48.7639)" style="fill:#472B29;" width="2.43" height="1"/>
		<path style="fill:#472B29;" d="M39.375,63c-0.634,0-1.231-0.247-1.679-0.696C37.247,61.856,37,61.259,37,60.625    s0.247-1.231,0.696-1.679l5.25-5.25c0.896-0.897,2.461-0.897,3.358,0l0,0l0,0l0,0C46.753,54.145,47,54.741,47,55.375    s-0.247,1.231-0.696,1.679l-5.25,5.25C40.606,62.753,40.009,63,39.375,63z M44.625,53.75c-0.434,0-0.842,0.169-1.149,0.476    l-5.25,5.25c-0.307,0.307-0.476,0.715-0.476,1.149s0.169,0.842,0.476,1.149c0.614,0.614,1.684,0.614,2.298,0l5.25-5.25    c0.307-0.307,0.476-0.715,0.476-1.149s-0.169-0.842-0.476-1.149l0,0C45.467,53.919,45.059,53.75,44.625,53.75z"/>
		
			<rect x="44.301" y="53.498" transform="matrix(0.7071 -0.7071 0.7071 0.7071 -26.1067 47.8244)" style="fill:#472B29;" width="0.75" height="3.856"/>
		<path style="fill:#472B29;" d="M40.5,60c-0.053,0-0.103-0.034-0.119-0.087l-0.75-2.375c-0.021-0.066,0.016-0.136,0.082-0.157    c0.068-0.019,0.136,0.016,0.157,0.082l0.75,2.375c0.021,0.066-0.016,0.136-0.082,0.157C40.525,59.998,40.512,60,40.5,60z"/>
		<path style="fill:#472B29;" d="M40,61c-0.053,0-0.103-0.034-0.119-0.087l-0.943-2.986c-0.021-0.066,0.016-0.136,0.082-0.157    c0.068-0.02,0.137,0.016,0.157,0.082l0.943,2.986c0.021,0.066-0.016,0.136-0.082,0.157C40.025,60.998,40.012,61,40,61z"/>
		<path style="fill:#472B29;" d="M39.696,62.622c-0.053,0-0.103-0.034-0.119-0.087l-1.258-3.985    c-0.021-0.066,0.016-0.136,0.082-0.157c0.069-0.021,0.136,0.017,0.157,0.082l1.258,3.985c0.021,0.066-0.016,0.136-0.082,0.157    C39.721,62.62,39.708,62.622,39.696,62.622z"/>
		<path style="fill:#472B29;" d="M38.921,62.75c-0.053,0-0.103-0.034-0.119-0.087l-1.115-3.531    c-0.021-0.066,0.016-0.136,0.082-0.157c0.07-0.019,0.137,0.017,0.157,0.082l1.115,3.531c0.021,0.066-0.016,0.136-0.082,0.157    C38.946,62.748,38.933,62.75,38.921,62.75z"/>
	</g>
</g>
</svg>
