<?xml version="1.0" encoding="UTF-8"?>
<svg xmlns="http://www.w3.org/2000/svg" xmlns:xlink="http://www.w3.org/1999/xlink" viewBox="0 0 64 64" version="1.1" width="512px" height="512px">
<g id="surface1">
<path style=" fill:#BBDEF9;" d="M 12 4.941406 L 50 4.941406 C 51.65625 4.941406 53 6.28125 53 7.941406 L 53 55.941406 C 53 57.597656 51.65625 58.941406 50 58.941406 L 12 58.941406 C 10.34375 58.941406 9 57.597656 9 55.941406 L 9 7.941406 C 9 6.28125 10.34375 4.941406 12 4.941406 Z "/>
<path style=" fill:#CCE7FC;" d="M 9 59 L 8.851563 49.539063 L 52.339844 6.058594 L 53 29 L 23 59 Z "/>
<path style=" fill:#CCE7FC;" d="M 8.851563 39.148438 L 43.058594 4.941406 L 48.808594 5.191406 L 9 45 Z "/>
<path style=" fill:#CCE7FC;" d="M 8.851563 33.148438 L 37 5 L 40 5 L 8.851563 36.148438 Z "/>
<path style=" fill:#FFFFFF;" d="M 47.5 17 L 48.738281 19.261719 L 51 20.5 L 48.738281 21.738281 L 47.5 24 L 46.261719 21.738281 L 44 20.5 L 46.261719 19.261719 Z "/>
<path style=" fill:#FFFFFF;" d="M 38.421875 35 L 39.269531 36.558594 L 40.839844 37.421875 L 39.269531 38.269531 L 38.421875 39.839844 L 37.558594 38.269531 L 36 37.421875 L 37.558594 36.558594 Z "/>
<path style=" fill:#FFFFFF;" d="M 14.648438 20 L 15.230469 21.070313 L 16.300781 21.648438 L 15.230469 22.230469 L 14.648438 23.300781 L 14.058594 22.230469 L 13 21.648438 L 14.058594 21.070313 Z "/>
<path style=" fill:#FFEFB8;" d="M 17 13 L 45 13 L 45 17 L 17 17 Z "/>
<path style=" fill:#8D6C9F;" d="M 51 4 L 11 4 C 9.34375 4 8 5.34375 8 7 L 8 57 C 8 58.65625 9.34375 60 11 60 L 51 60 C 52.65625 60 54 58.65625 54 57 L 54 7 C 54 5.34375 52.65625 4 51 4 Z M 52 57 C 52 57.550781 51.550781 58 51 58 L 11 58 C 10.449219 58 10 57.550781 10 57 L 10 7 C 10 6.449219 10.449219 6 11 6 L 51 6 C 51.550781 6 52 6.449219 52 7 Z "/>
<path style=" fill:#8D6C9F;" d="M 13 52 C 12.449219 52 12 52.449219 12 53 L 12 55 C 12 55.550781 12.449219 56 13 56 C 13.550781 56 14 55.550781 14 55 L 14 53 C 14 52.449219 13.550781 52 13 52 Z "/>
<path style=" fill:#8D6C9F;" d="M 18 52 C 17.449219 52 17 52.449219 17 53 L 17 55 C 17 55.550781 17.449219 56 18 56 C 18.550781 56 19 55.550781 19 55 L 19 53 C 19 52.449219 18.550781 52 18 52 Z "/>
<path style=" fill:#8D6C9F;" d="M 23 52 C 22.449219 52 22 52.449219 22 53 L 22 55 C 22 55.550781 22.449219 56 23 56 C 23.550781 56 24 55.550781 24 55 L 24 53 C 24 52.449219 23.550781 52 23 52 Z "/>
<path style=" fill:#8D6C9F;" d="M 28 52 C 27.449219 52 27 52.449219 27 53 L 27 55 C 27 55.550781 27.449219 56 28 56 C 28.550781 56 29 55.550781 29 55 L 29 53 C 29 52.449219 28.550781 52 28 52 Z "/>
<path style=" fill:#8D6C9F;" d="M 33 52 C 32.449219 52 32 52.449219 32 53 L 32 55 C 32 55.550781 32.449219 56 33 56 C 33.550781 56 34 55.550781 34 55 L 34 53 C 34 52.449219 33.550781 52 33 52 Z "/>
<path style=" fill:#8D6C9F;" d="M 38 52 C 37.449219 52 37 52.449219 37 53 L 37 55 C 37 55.550781 37.449219 56 38 56 C 38.550781 56 39 55.550781 39 55 L 39 53 C 39 52.449219 38.550781 52 38 52 Z "/>
<path style=" fill:#8D6C9F;" d="M 43 52 C 42.449219 52 42 52.449219 42 53 L 42 55 C 42 55.550781 42.449219 56 43 56 C 43.550781 56 44 55.550781 44 55 L 44 53 C 44 52.449219 43.550781 52 43 52 Z "/>
<path style=" fill:#8D6C9F;" d="M 48 52 C 47.449219 52 47 52.449219 47 53 L 47 55 C 47 55.550781 47.449219 56 48 56 C 48.550781 56 49 55.550781 49 55 L 49 53 C 49 52.449219 48.550781 52 48 52 Z "/>
<path style=" fill:#8D6C9F;" d="M 44 24 L 41 24 C 40.449219 24 40 24.449219 40 25 C 40 25.550781 40.449219 26 41 26 L 44 26 C 44.550781 26 45 25.550781 45 25 C 45 24.449219 44.550781 24 44 24 Z "/>
<path style=" fill:#8D6C9F;" d="M 44 30 L 41 30 C 40.449219 30 40 30.449219 40 31 C 40 31.550781 40.449219 32 41 32 L 44 32 C 44.550781 32 45 31.550781 45 31 C 45 30.449219 44.550781 30 44 30 Z "/>
<path style=" fill:#8D6C9F;" d="M 44 40 L 41 40 C 40.449219 40 40 40.449219 40 41 C 40 41.550781 40.449219 42 41 42 L 44 42 C 44.550781 42 45 41.550781 45 41 C 45 40.449219 44.550781 40 44 40 Z "/>
<path style=" fill:#8D6C9F;" d="M 18 26 L 31 26 C 31.550781 26 32 25.550781 32 25 C 32 24.449219 31.550781 24 31 24 L 18 24 C 17.449219 24 17 24.449219 17 25 C 17 25.550781 17.449219 26 18 26 Z "/>
<path style=" fill:#8D6C9F;" d="M 18 36 L 31 36 C 31.550781 36 32 35.550781 32 35 C 32 34.449219 31.550781 34 31 34 L 18 34 C 17.449219 34 17 34.449219 17 35 C 17 35.550781 17.449219 36 18 36 Z "/>
<path style=" fill:#8D6C9F;" d="M 35 30 L 18 30 C 17.449219 30 17 30.449219 17 31 C 17 31.550781 17.449219 32 18 32 L 35 32 C 35.550781 32 36 31.550781 36 31 C 36 30.449219 35.550781 30 35 30 Z "/>
<path style=" fill:#8D6C9F;" d="M 44 12 L 18 12 C 16.894531 12 16 12.894531 16 14 L 16 16 C 16 17.105469 16.894531 18 18 18 L 44 18 C 45.105469 18 46 17.105469 46 16 L 46 14 C 46 12.894531 45.105469 12 44 12 Z M 18 16 L 18 14 L 44 14 L 44 16 Z "/>
<path style=" fill:#8D6C9F;" d="M 31 44 L 18 44 C 17.449219 44 17 44.449219 17 45 C 17 45.550781 17.449219 46 18 46 L 31 46 C 31.550781 46 32 45.550781 32 45 C 32 44.449219 31.550781 44 31 44 Z "/>
<path style=" fill:#8D6C9F;" d="M 35 40 L 18 40 C 17.449219 40 17 40.449219 17 41 C 17 41.550781 17.449219 42 18 42 L 35 42 C 35.550781 42 36 41.550781 36 41 C 36 40.449219 35.550781 40 35 40 Z "/>
</g>
</svg>
