<?xml version="1.0" encoding="utf-8"?>
<!-- Generator: Adobe Illustrator 21.0.0, SVG Export Plug-In . SVG Version: 6.00 Build 0)  -->
<svg xmlns="http://www.w3.org/2000/svg" xmlns:xlink="http://www.w3.org/1999/xlink" version="1.1" x="0px" y="0px" viewBox="0 0 100 100" style="enable-background:new 0 0 100 100;" xml:space="preserve" width="500px" height="500px">

<g id="emoticon_lol_1_">
	<g id="window_plug_88_">
	</g>
</g>
<g id="emoticon_angry">
	<g id="window_plug_89_">
	</g>
</g>
<g id="emoticon_embarass">
	<g id="window_plug_90_">
	</g>
</g>
<g id="emoticon_cry">
	<g id="window_plug_91_">
	</g>
</g>
<g id="emoticon_happy">
	<g id="window_plug_92_">
	</g>
</g>
<g id="emoticon_funny">
	<g id="window_plug_93_">
	</g>
</g>
<g id="emoticon_in_love">
	<g id="window_plug_94_">
	</g>
</g>
<g id="emoticon_sad">
	<g id="window_plug_95_">
	</g>
</g>
<g id="energy_round">
	<g id="window_plug_96_">
	</g>
</g>
<g id="love_round">
	<g id="window_plug_97_">
	</g>
</g>
<g id="delete_round">
	<g id="window_plug_71_">
	</g>
</g>
<g id="tick_round">
</g>
<g id="remove_round">
	<g id="window_plug_73_">
	</g>
</g>
<g id="add_round">
</g>
<g id="performance">
	<g id="window_plug_75_">
	</g>
</g>
<g id="key_tag">
	<g id="window_plug_76_">
	</g>
</g>
<g id="blueprint_pen">
	<g id="window_plug_77_">
	</g>
</g>
<g id="blueprint_zoom">
	<g id="window_plug_78_">
	</g>
</g>
<g id="map_navigator">
	<g id="window_plug_79_">
	</g>
</g>
<g id="id_men_horizontal">
</g>
<g id="id_women_horizontal">
	<g id="window_plug_41_">
	</g>
</g>
<g id="id_men">
	<g id="window_plug_42_">
	</g>
</g>
<g id="id_women">
	<g id="window_plug_43_">
	</g>
</g>
<g id="women_macbook">
	<g id="window_plug_44_">
	</g>
</g>
<g id="performance_macbook">
	<g id="window_plug_45_">
	</g>
</g>
<g id="performance_imac">
	<g id="window_plug_46_">
	</g>
</g>
<g id="women_imac">
	<g id="window_plug_47_">
	</g>
</g>
<g id="performance_smartphone">
	<g id="window_plug_48_">
	</g>
</g>
<g id="smathone_chat_female">
	<g id="window_plug_49_">
	</g>
</g>
<g id="smathone_chat_male">
	<g id="window_plug_50_">
	</g>
</g>
<g id="security_eye">
	<g id="window_plug_251_">
	</g>
</g>
<g id="security_block">
	<g id="window_plug_252_">
	</g>
</g>
<g id="security_settings">
	<g id="window_plug_253_">
	</g>
</g>
<g id="security_wi-fi">
	<g id="window_plug_254_">
	</g>
</g>
<g id="security_lock_green">
</g>
<g id="security_time">
	<g id="window_plug_256_">
	</g>
</g>
<g id="security_energy">
	<g id="window_plug_257_">
	</g>
</g>
<g id="security_lock_yellow">
	<g id="window_plug_258_">
	</g>
</g>
<g id="security_user_female">
	<g id="window_plug_259_">
	</g>
</g>
<g id="security_user_male">
	<g id="window_plug_260_">
	</g>
</g>
<g id="security_lock">
	<g id="window_plug_1560_">
	</g>
</g>
<g id="smartphone_answer">
	<g id="window_plug_1561_">
	</g>
</g>
<g id="smartphone_decilne">
	<g id="window_plug_1562_">
	</g>
</g>
<g id="bug_document">
	<g id="window_plug_1563_">
	</g>
</g>
<g id="bug_window">
	<g id="window_plug_1564_">
	</g>
</g>
<g id="bug_smartphone">
	<g id="window_plug_1565_">
	</g>
</g>
<g id="bug_laptop">
	<g id="window_plug_1566_">
	</g>
</g>
<g id="button_google_1_">
	<g id="window_plug_1567_">
	</g>
</g>
<g id="button_pinterest_1_">
	<g id="window_plug_1568_">
	</g>
</g>
<g id="button_facebook">
	<g id="window_plug_1569_">
	</g>
</g>
<g id="button_snapchat">
	<g id="window_plug_1550_">
	</g>
</g>
<g id="button_dribbble">
	<g id="window_plug_1551_">
	</g>
</g>
<g id="button_flickr">
	<g id="window_plug_1552_">
	</g>
</g>
<g id="button_youtube">
	<g id="window_plug_1553_">
	</g>
</g>
<g id="button_skype">
	<g id="window_plug_1554_">
	</g>
</g>
<g id="button_twitter">
	<g id="window_plug_1555_">
	</g>
</g>
<g id="button_instagram">
	<g id="window_plug_1556_">
	</g>
</g>
<g id="button_linkedin">
	<g id="window_plug_1557_">
	</g>
</g>
<g id="button_vimeo">
	<g id="window_plug_1558_">
	</g>
</g>
<g id="button_tumblr">
	<g id="window_plug_1559_">
	</g>
</g>
<g id="marker_sun">
</g>
<g id="marker_storm">
	<g id="window_plug_1422_">
	</g>
</g>
<g id="marker_wind">
	<g id="window_plug_1423_">
	</g>
</g>
<g id="rainbow">
	<g id="window_plug_1424_">
	</g>
</g>
<g id="moon">
	<g id="window_plug_1425_">
	</g>
</g>
<g id="wind_sock">
	<g id="window_plug_1426_">
	</g>
</g>
<g id="rain">
	<g id="window_plug_1427_">
	</g>
</g>
<g id="storm">
	<g id="window_plug_1428_">
	</g>
</g>
<g id="wind">
	<g id="window_plug_1429_">
	</g>
</g>
<g id="sun">
	<g id="window_plug_1430_">
	</g>
</g>
<g id="letter_edit">
	<g id="window_plug_1271_">
	</g>
</g>
<g id="letter_other">
	<g id="window_plug_1272_">
	</g>
</g>
<g id="letter_add">
	<g id="window_plug_1273_">
	</g>
</g>
<g id="letter_lock">
	<g id="window_plug_1274_">
	</g>
</g>
<g id="letter_security">
	<g id="window_plug_1275_">
	</g>
</g>
<g id="letter_delete">
	<g id="window_plug_1276_">
	</g>
</g>
<g id="letter_energy">
	<g id="window_plug_1277_">
	</g>
</g>
<g id="letter_star">
	<g id="window_plug_1278_">
	</g>
</g>
<g id="letter_settings">
	<circle cx="50.392" cy="50.249" r="47.24" style="display:none;fill:#89C149;"/>
	<path d="M88.683,56.007c0.3-0.616,0.566-1.264,0.796-1.943c2.633-7.77-1.349-17.078-9.733-19.325   c-0.906-11.384-8.906-19.193-17.941-20.526C51.464,12.689,41.991,19.259,38.839,29.7c-3.799-1.346-7.501-1.182-10.99,0.857   c-1.583,0.732-3.031,1.812-4.33,3.233c-1.907,2.086-3.147,4.719-3.652,7.495c-0.748,0.118-1.483,0.236-2.176,0.484   c-4.04,1.449-6.589,4.431-7.288,8.923c-0.435,2.797,0.443,5.587,0.933,6.714c1.935,4.455,6.422,6.98,10.981,6.312   c0.227-0.033,0.557,0.069,0.752,0.233c0.241,7.12,3.698,13.417,8.884,17.014c8.321,5.772,19.027,3.994,25.781-3.921   c2.894,2.96,6.338,4.398,10.384,3.876c4.023-0.519,7.147-2.739,9.426-6.349c1.053,0.283,2.051,0.691,3.083,0.804   c4.042,0.442,7.324-1.165,9.732-4.8c0.922-1.391,1.793-3.194,1.793-6.354C92.153,60.964,90.86,57.997,88.683,56.007z" style="fill:#C7EDE6;"/>
	<g>
		<g>
			<path d="M18.348,48.043H8.317c-0.276,0-0.5-0.224-0.5-0.5s0.224-0.5,0.5-0.5h10.031c0.276,0,0.5,0.224,0.5,0.5     S18.624,48.043,18.348,48.043z" style="fill:#FFFFFF;"/>
			<path d="M21.229,48.043h-1.446c-0.276,0-0.5-0.224-0.5-0.5s0.224-0.5,0.5-0.5h1.446c0.276,0,0.5,0.224,0.5,0.5     S21.505,48.043,21.229,48.043z" style="fill:#FFFFFF;"/>
			<path d="M25.284,48.043h-2.546c-0.276,0-0.5-0.224-0.5-0.5s0.224-0.5,0.5-0.5h2.546c0.276,0,0.5,0.224,0.5,0.5     S25.56,48.043,25.284,48.043z" style="fill:#FFFFFF;"/>
		</g>
		<g>
			<path d="M25.284,49.908h-9.616c-0.276,0-0.5-0.224-0.5-0.5s0.224-0.5,0.5-0.5h9.616c0.276,0,0.5,0.224,0.5,0.5     S25.56,49.908,25.284,49.908z" style="fill:#FFFFFF;"/>
			<path d="M13.935,49.908h-0.58c-0.276,0-0.5-0.224-0.5-0.5s0.224-0.5,0.5-0.5h0.58c0.276,0,0.5,0.224,0.5,0.5     S14.212,49.908,13.935,49.908z" style="fill:#FFFFFF;"/>
			<path d="M11.559,49.908h-1.457c-0.276,0-0.5-0.224-0.5-0.5s0.224-0.5,0.5-0.5h1.457c0.276,0,0.5,0.224,0.5,0.5     S11.835,49.908,11.559,49.908z" style="fill:#FFFFFF;"/>
		</g>
		<path d="M20.695,46.179h-5.027c-0.276,0-0.5-0.224-0.5-0.5s0.224-0.5,0.5-0.5h5.027c0.276,0,0.5,0.224,0.5,0.5    S20.971,46.179,20.695,46.179z" style="fill:#FFFFFF;"/>
		<path d="M20.695,44.313h-1.257c-0.276,0-0.5-0.224-0.5-0.5s0.224-0.5,0.5-0.5h1.257c0.276,0,0.5,0.224,0.5,0.5    S20.971,44.313,20.695,44.313z" style="fill:#FFFFFF;"/>
		<path d="M17.426,51.773h-1.758c-0.276,0-0.5-0.224-0.5-0.5s0.224-0.5,0.5-0.5h1.758c0.276,0,0.5,0.224,0.5,0.5    S17.702,51.773,17.426,51.773z" style="fill:#FFFFFF;"/>
	</g>
	<g id="window_plug_1279_">
	</g>
	<g>
		<g>
			<path d="M36.081,68.916c0,0,11.233,0,11.301,0c2.594,0,4.697-2.103,4.697-4.697c0-2.263-1.601-4.152-3.732-4.597     c0.025-0.198,0.041-0.399,0.041-0.603c0-2.687-2.178-4.865-4.865-4.865c-1.586,0-2.991,0.763-3.879,1.938     c-0.227-2.991-2.898-5.298-6.024-4.916c-2.285,0.28-4.176,2.046-4.596,4.31c-0.135,0.726-0.121,1.431,0.014,2.092     c-0.613-0.66-1.485-1.075-2.456-1.075c-1.778,0-3.229,1.384-3.344,3.133c-0.807-0.179-1.685-0.167-2.61,0.18     c-1.768,0.664-3.027,2.328-3.1,4.215c-0.105,2.68,2.037,4.885,4.693,4.885c0.202,0,0.911,0,1.074,0h9.753" style="fill:#C0E5E4;"/>
			<path d="M47.382,69.416H36.081c-0.276,0-0.5-0.224-0.5-0.5s0.224-0.5,0.5-0.5h11.301     c2.314,0,4.197-1.883,4.197-4.197c0-1.977-1.402-3.704-3.334-4.108c-0.255-0.053-0.426-0.293-0.394-0.552     c0.022-0.178,0.038-0.357,0.038-0.541c0-2.407-1.958-4.365-4.365-4.365c-1.376,0-2.645,0.634-3.479,1.739     c-0.125,0.167-0.339,0.237-0.54,0.179c-0.199-0.059-0.342-0.235-0.357-0.442c-0.1-1.318-0.746-2.556-1.771-3.396     c-1.036-0.849-2.345-1.226-3.695-1.062c-2.072,0.254-3.785,1.86-4.165,3.905c-0.119,0.638-0.115,1.278,0.012,1.901     c0.044,0.22-0.062,0.442-0.262,0.544c-0.2,0.102-0.443,0.06-0.595-0.104c-0.548-0.59-1.291-0.916-2.09-0.916     c-1.497,0-2.747,1.171-2.845,2.666c-0.01,0.146-0.083,0.28-0.199,0.367c-0.117,0.087-0.267,0.119-0.408,0.088     c-0.805-0.179-1.566-0.125-2.327,0.16c-1.596,0.599-2.712,2.113-2.776,3.766c-0.045,1.154,0.37,2.247,1.168,3.078     c0.799,0.831,1.874,1.288,3.025,1.288h10.828c0.276,0,0.5,0.224,0.5,0.5s-0.224,0.5-0.5,0.5H22.221     c-1.427,0-2.757-0.566-3.746-1.595c-0.989-1.028-1.502-2.381-1.446-3.81c0.08-2.05,1.456-3.924,3.424-4.664     c0.767-0.288,1.559-0.385,2.362-0.29c0.371-1.751,1.932-3.055,3.768-3.055c0.649,0,1.286,0.167,1.849,0.476     c0.001-0.36,0.036-0.723,0.103-1.084c0.459-2.47,2.526-4.409,5.027-4.715c1.618-0.202,3.201,0.256,4.45,1.28     c0.959,0.786,1.643,1.861,1.957,3.047c0.972-0.87,2.223-1.353,3.557-1.353c2.958,0,5.365,2.407,5.365,5.365     c0,0.075-0.002,0.15-0.006,0.225c2.167,0.654,3.696,2.679,3.696,4.976C52.579,67.085,50.248,69.416,47.382,69.416z" style="fill:#472B29;"/>
		</g>
		<path d="M23.055,65.21c-0.006,0-0.012,0-0.017,0c-0.138-0.009-0.242-0.128-0.233-0.266    c0.103-1.53,1.534-2.691,3.188-2.578c0.128,0.009,0.256,0.025,0.385,0.049c0.268-0.93,1.218-1.58,2.281-1.505    c0.404,0.027,0.783,0.151,1.108,0.36c0.001-0.012,0.001-0.025,0.002-0.037c0.116-1.729,1.724-3.043,3.606-2.912    c0.138,0.009,0.242,0.128,0.233,0.266c-0.009,0.138-0.127,0.251-0.266,0.233c-1.595-0.103-2.976,0.993-3.074,2.447    c-0.012,0.175-0.005,0.353,0.022,0.528c0.017,0.109-0.041,0.217-0.141,0.264c-0.099,0.047-0.219,0.023-0.293-0.061    c-0.309-0.348-0.746-0.558-1.23-0.589c-0.889-0.067-1.696,0.53-1.809,1.341c-0.01,0.071-0.05,0.134-0.11,0.174    s-0.134,0.052-0.203,0.033c-0.181-0.049-0.364-0.08-0.543-0.092c-1.386-0.096-2.572,0.857-2.656,2.112    C23.295,65.109,23.185,65.21,23.055,65.21z" style="fill:#472B29;"/>
		<path d="M44.874,62.19c-0.019,0-0.037-0.002-0.056-0.006c-0.134-0.031-0.218-0.165-0.188-0.3    c0.048-0.209,0.119-0.412,0.211-0.603c0.755-1.562,2.795-2.162,4.549-1.335c0.125,0.059,0.179,0.208,0.12,0.333    c-0.059,0.125-0.208,0.178-0.333,0.12c-1.506-0.709-3.249-0.216-3.886,1.1c-0.076,0.157-0.135,0.325-0.174,0.498    C45.091,62.112,44.988,62.19,44.874,62.19z" style="fill:#472B29;"/>
	</g>
	<g>
		<g>
			<g>
				<path d="M38.035,69.289h26.311c2.01,0,3.654-1.644,3.654-3.654V50.941c0-2.01-1.644-3.654-3.654-3.654H38.035      c-2.01,0-3.654,1.644-3.654,3.654v14.694C34.381,67.645,36.025,69.289,38.035,69.289z" style="fill:#FDFCEE;"/>
				<path d="M64.346,69.89H38.035c-2.346,0-4.254-1.909-4.254-4.254V50.941c0-2.346,1.909-4.254,4.254-4.254h26.311      c2.346,0,4.254,1.909,4.254,4.254v14.694C68.601,67.981,66.692,69.89,64.346,69.89z M38.035,47.887      c-1.684,0-3.054,1.37-3.054,3.054v14.694c0,1.684,1.37,3.054,3.054,3.054h26.311c1.684,0,3.054-1.37,3.054-3.054V50.941      c0-1.684-1.37-3.054-3.054-3.054H38.035z" style="fill:#472B29;"/>
			</g>
			<path d="M55.906,57.407c-0.11,0-0.218-0.051-0.286-0.147c-0.112-0.158-0.075-0.376,0.083-0.488l11.516-8.164     c0.158-0.112,0.376-0.074,0.488,0.083c0.112,0.158,0.075,0.376-0.083,0.488l-11.516,8.164     C56.046,57.386,55.976,57.407,55.906,57.407z" style="fill:#472B29;"/>
			<path d="M47.403,57.373c-0.068,0-0.136-0.02-0.197-0.061l-11.913-8.13c-0.16-0.109-0.201-0.327-0.092-0.486     c0.108-0.16,0.325-0.201,0.486-0.092l11.913,8.13c0.16,0.109,0.201,0.327,0.092,0.486C47.625,57.319,47.515,57.373,47.403,57.373     z" style="fill:#472B29;"/>
			<path d="M34.71,67.553c-0.115,0-0.227-0.056-0.294-0.16c-0.105-0.162-0.059-0.379,0.103-0.484L51.005,56.21     c0.491-0.319,1.141-0.307,1.619,0.028l15.212,10.678c0.158,0.111,0.196,0.33,0.085,0.488c-0.111,0.159-0.33,0.197-0.488,0.085     L52.222,56.811c-0.241-0.17-0.585-0.175-0.835-0.014L34.9,67.496C34.842,67.535,34.775,67.553,34.71,67.553z" style="fill:#472B29;"/>
		</g>
		<g>
			<g>
				<path d="M39.685,50.509v-6.102c3.079-2.727,4.838-4.285,7.918-7.013h7.357h3.56h1.108h0.496      c1.878,0,3.415,1.361,3.415,3.025v7.803" style="fill:#FDFCEE;"/>
				<path d="M39.685,50.859c-0.193,0-0.35-0.157-0.35-0.35v-6.103c0-0.1,0.043-0.196,0.118-0.262l7.917-7.013      c0.064-0.057,0.146-0.088,0.232-0.088h12.521c2.076,0,3.765,1.514,3.765,3.375v7.803c0,0.193-0.157,0.35-0.35,0.35      s-0.35-0.157-0.35-0.35v-7.803c0-1.475-1.375-2.674-3.065-2.674H47.736l-7.7,6.82v5.945      C40.036,50.703,39.879,50.859,39.685,50.859z" style="fill:#472B29;"/>
			</g>
			<path d="M60.141,51.902h-9.528c-0.193,0-0.35-0.157-0.35-0.35s0.157-0.35,0.35-0.35h9.528     c0.193,0,0.35,0.157,0.35,0.35S60.334,51.902,60.141,51.902z" style="fill:#472B29;"/>
			<path d="M60.141,49.477h-9.528c-0.193,0-0.35-0.157-0.35-0.35s0.157-0.35,0.35-0.35h9.528     c0.193,0,0.35,0.157,0.35,0.35S60.334,49.477,60.141,49.477z" style="fill:#472B29;"/>
			<g>
				<polyline points="48.505,51.379 48.505,46.703 43.067,46.703 43.067,52.245 47.315,52.245     " style="fill:#CDCBBD;"/>
				<path d="M47.315,52.595h-4.248c-0.193,0-0.35-0.157-0.35-0.35v-5.542c0-0.193,0.157-0.35,0.35-0.35h5.438      c0.193,0,0.35,0.157,0.35,0.35v4.676c0,0.193-0.157,0.35-0.35,0.35s-0.35-0.157-0.35-0.35v-4.326h-4.737v4.841h3.898      c0.193,0,0.35,0.157,0.35,0.35S47.509,52.595,47.315,52.595z" style="fill:#472B29;"/>
			</g>
			<path d="M60.141,47.053h-9.528c-0.193,0-0.35-0.157-0.35-0.35s0.157-0.35,0.35-0.35h9.528     c0.193,0,0.35,0.157,0.35,0.35S60.334,47.053,60.141,47.053z" style="fill:#472B29;"/>
			<g>
				<path d="M47.82,37.515v3.91c0,1.688-1.594,3.069-3.542,3.069h-4.513" style="fill:#CDCBBD;"/>
				<path d="M44.278,44.844h-4.513c-0.193,0-0.35-0.157-0.35-0.35s0.157-0.35,0.35-0.35h4.513      c1.76,0,3.192-1.22,3.192-2.719v-3.911c0-0.193,0.157-0.35,0.35-0.35s0.35,0.157,0.35,0.35v3.911      C48.17,43.31,46.424,44.844,44.278,44.844z" style="fill:#472B29;"/>
			</g>
		</g>
	</g>
	<g>
		<g>
			<g>
				<g>
					<path d="M62.432,44.873c-0.002,2.368,1.46,4.609,3.974,6.089l0,0c0,1.279-0.373,2.696-0.839,3.598       c-0.165,0.32,0.093,0.693,0.451,0.653c2.32-0.255,4.518-1.4,5.686-2.546h1.325c5.853,0,10.598-3.49,10.598-7.795       s-4.745-7.795-10.598-7.795S62.432,40.568,62.432,44.873" style="fill:#C0E5E4;"/>
					<path d="M65.969,55.716c-0.312,0-0.607-0.153-0.786-0.414c-0.198-0.289-0.221-0.661-0.06-0.972       c0.361-0.7,0.726-1.898,0.777-3.09c-2.528-1.579-3.97-3.886-3.968-6.368c0-4.573,4.979-8.294,11.098-8.294       s11.098,3.721,11.098,8.294s-4.979,8.295-11.098,8.295h-1.125c-1.201,1.099-3.414,2.277-5.831,2.543       C66.038,55.714,66.003,55.716,65.969,55.716z M73.03,37.578c-5.568,0-10.098,3.272-10.098,7.294v0       c-0.002,2.2,1.357,4.262,3.728,5.659c0.152,0.09,0.246,0.253,0.246,0.431c0,1.273-0.351,2.775-0.895,3.827       c2.238-0.324,4.307-1.462,5.343-2.479c0.093-0.092,0.219-0.143,0.35-0.143h1.325c5.568,0,10.098-3.272,10.098-7.295       C83.127,40.85,78.598,37.578,73.03,37.578z M62.432,44.872h0.01H62.432z" style="fill:#472B29;"/>
				</g>
				<path d="M77.941,42.105h-2.918c-0.166,0-0.3-0.134-0.3-0.3s0.134-0.3,0.3-0.3h2.918c0.166,0,0.3,0.134,0.3,0.3      S78.106,42.105,77.941,42.105z" style="fill:#472B29;"/>
				<path d="M73.726,42.105h-6.16c-0.166,0-0.3-0.134-0.3-0.3s0.134-0.3,0.3-0.3h6.16c0.166,0,0.3,0.134,0.3,0.3      S73.892,42.105,73.726,42.105z" style="fill:#472B29;"/>
				<path d="M79.238,44.051h-8.105c-0.166,0-0.3-0.134-0.3-0.3s0.134-0.3,0.3-0.3h8.105c0.166,0,0.3,0.134,0.3,0.3      S79.403,44.051,79.238,44.051z" style="fill:#472B29;"/>
				<path d="M69.835,44.051h-3.891c-0.166,0-0.3-0.134-0.3-0.3s0.134-0.3,0.3-0.3h3.891c0.166,0,0.3,0.134,0.3,0.3      S70.001,44.051,69.835,44.051z" style="fill:#472B29;"/>
				<path d="M75.996,45.996H65.944c-0.166,0-0.3-0.134-0.3-0.3s0.134-0.3,0.3-0.3h10.051c0.166,0,0.3,0.134,0.3,0.3      S76.161,45.996,75.996,45.996z" style="fill:#472B29;"/>
				<path d="M73.354,48.265h-5.788c-0.166,0-0.3-0.134-0.3-0.3s0.134-0.3,0.3-0.3h5.788c0.166,0,0.3,0.134,0.3,0.3      S73.519,48.265,73.354,48.265z" style="fill:#472B29;"/>
			</g>
			<g>
				<circle cx="78.982" cy="50.4" r="4.042" style="fill:#8889B9;"/>
				<path d="M78.981,54.942c-2.504,0-4.542-2.038-4.542-4.542c0-2.504,2.038-4.542,4.542-4.542      c2.505,0,4.542,2.038,4.542,4.542C83.524,52.904,81.486,54.942,78.981,54.942z M78.981,46.857c-1.953,0-3.542,1.589-3.542,3.542      s1.589,3.542,3.542,3.542s3.542-1.589,3.542-3.542S80.935,46.857,78.981,46.857z" style="fill:#472B29;"/>
			</g>
			<g>
				<path d="M80.871,50.418c-0.006-0.281,0.146-0.459,0.401-0.558c-0.016-0.154-0.194-0.585-0.285-0.688      c-0.245,0.114-0.476,0.097-0.671-0.095c-0.198-0.196-0.214-0.43-0.099-0.68c-0.215-0.132-0.445-0.228-0.692-0.285      c-0.083,0.242-0.245,0.394-0.498,0.413c-0.3,0.022-0.495-0.133-0.598-0.411c-0.246,0.06-0.476,0.156-0.689,0.289      c0.117,0.248,0.102,0.479-0.091,0.675c-0.195,0.198-0.429,0.217-0.679,0.101c-0.131,0.215-0.224,0.445-0.281,0.691      c0.251,0.092,0.402,0.264,0.408,0.53c0.007,0.277-0.143,0.459-0.4,0.559c0.059,0.244,0.156,0.472,0.289,0.684      c0.243-0.108,0.47-0.09,0.662,0.096c0.195,0.19,0.219,0.419,0.111,0.667c0.215,0.131,0.444,0.224,0.688,0.281      c0.004-0.007,0.006-0.012,0.008-0.016c0.088-0.231,0.289-0.378,0.519-0.381c0.246-0.003,0.449,0.134,0.544,0.368      c0.01,0.026,0.022,0.025,0.044,0.019c0.221-0.056,0.43-0.142,0.627-0.259c0.011-0.006,0.021-0.014,0.029-0.019      c-0.1-0.225-0.091-0.438,0.069-0.624c0.192-0.223,0.433-0.256,0.701-0.142c0.132-0.214,0.228-0.442,0.286-0.685      C81.026,50.854,80.877,50.684,80.871,50.418z M78.98,51.11c-0.395-0.002-0.712-0.321-0.711-0.715      c0.002-0.394,0.323-0.71,0.721-0.706c0.397,0.004,0.714,0.333,0.703,0.731C79.682,50.791,79.381,51.108,78.98,51.11z" style="fill:#FDFCEF;"/>
				<path d="M78.437,52.837c-0.008,0-0.016-0.001-0.023-0.003c-0.259-0.06-0.506-0.16-0.733-0.299      c-0.064-0.039-0.089-0.119-0.06-0.188c0.089-0.203,0.064-0.362-0.078-0.499c-0.139-0.136-0.297-0.158-0.496-0.067      c-0.068,0.029-0.149,0.005-0.188-0.058c-0.142-0.227-0.246-0.472-0.308-0.729c-0.018-0.073,0.021-0.148,0.091-0.175      c0.213-0.083,0.31-0.215,0.305-0.415c-0.004-0.193-0.103-0.318-0.31-0.394c-0.071-0.026-0.111-0.101-0.095-0.174      c0.06-0.26,0.16-0.507,0.299-0.736c0.04-0.064,0.124-0.089,0.19-0.058c0.208,0.094,0.369,0.072,0.51-0.07      c0.139-0.141,0.159-0.302,0.062-0.505c-0.033-0.069-0.009-0.151,0.056-0.191c0.223-0.14,0.47-0.244,0.733-0.308      c0.079-0.018,0.15,0.022,0.176,0.093c0.085,0.229,0.227,0.328,0.446,0.313c0.182-0.014,0.299-0.113,0.367-0.312      c0.025-0.073,0.099-0.117,0.176-0.097c0.259,0.06,0.507,0.162,0.737,0.303c0.065,0.04,0.089,0.122,0.058,0.191      c-0.096,0.208-0.074,0.37,0.068,0.51c0.141,0.141,0.301,0.16,0.502,0.066c0.06-0.03,0.131-0.014,0.176,0.037      c0.111,0.127,0.303,0.588,0.321,0.772c0.006,0.067-0.032,0.13-0.095,0.154c-0.212,0.083-0.309,0.215-0.305,0.416l0,0      c0.004,0.19,0.101,0.314,0.306,0.393c0.07,0.027,0.11,0.102,0.092,0.175c-0.062,0.257-0.164,0.503-0.304,0.73      c-0.038,0.063-0.117,0.088-0.186,0.059c-0.219-0.092-0.387-0.062-0.528,0.102c-0.113,0.132-0.128,0.28-0.045,0.466      c0.03,0.069,0.005,0.149-0.059,0.188c-0.237,0.143-0.461,0.236-0.698,0.296c-0.114,0.029-0.189-0.036-0.219-0.106      c-0.072-0.179-0.209-0.29-0.403-0.277c-0.168,0.002-0.314,0.111-0.381,0.285C78.569,52.783,78.5,52.837,78.437,52.837z       M77.943,52.339c0.134,0.072,0.276,0.13,0.423,0.172c0.13-0.228,0.357-0.368,0.607-0.371c0.003,0,0.006,0,0.009,0      c0.268,0,0.501,0.138,0.63,0.368c0.147-0.044,0.289-0.102,0.422-0.175c-0.07-0.243-0.023-0.468,0.139-0.656      c0.199-0.233,0.456-0.31,0.747-0.227c0.073-0.134,0.131-0.274,0.175-0.42c-0.24-0.131-0.369-0.339-0.374-0.61l0,0      c-0.006-0.288,0.125-0.51,0.379-0.647c-0.038-0.126-0.114-0.308-0.172-0.418c-0.269,0.083-0.519,0.024-0.717-0.172      c-0.203-0.201-0.264-0.448-0.179-0.721c-0.134-0.073-0.274-0.13-0.418-0.173c-0.119,0.233-0.315,0.365-0.575,0.384      c-0.306,0.027-0.549-0.112-0.693-0.382c-0.147,0.044-0.287,0.103-0.419,0.175c0.086,0.269,0.028,0.514-0.17,0.716      c-0.201,0.204-0.449,0.264-0.72,0.182c-0.071,0.134-0.128,0.274-0.17,0.419c0.243,0.129,0.375,0.338,0.381,0.613      c0.007,0.286-0.121,0.507-0.372,0.645c0.044,0.145,0.104,0.285,0.177,0.418c0.263-0.077,0.503-0.019,0.7,0.173      C77.955,51.828,78.019,52.071,77.943,52.339z M78.979,51.26c-0.23-0.001-0.447-0.092-0.609-0.255      c-0.163-0.164-0.251-0.38-0.25-0.611c0.001-0.23,0.091-0.446,0.255-0.607c0.165-0.163,0.373-0.249,0.617-0.249      c0.232,0.002,0.45,0.096,0.611,0.264c0.162,0.168,0.247,0.389,0.24,0.622c-0.013,0.465-0.391,0.833-0.861,0.835      C78.981,51.26,78.98,51.26,78.979,51.26z M78.983,49.839c-0.15,0-0.292,0.058-0.397,0.162c-0.106,0.105-0.166,0.245-0.166,0.395      c0,0.15,0.057,0.292,0.163,0.398c0.105,0.106,0.247,0.166,0.397,0.167c0.307-0.002,0.554-0.241,0.562-0.544      c0.004-0.152-0.051-0.296-0.156-0.406c-0.105-0.109-0.246-0.17-0.397-0.172C78.987,49.839,78.985,49.839,78.983,49.839z" style="fill:#472B29;"/>
			</g>
		</g>
	</g>
	<g>
		<g>
			<g>
				<path d="M72.459,72.063c1.883,0,3.517,0,3.54,0c2.11,0,3.821-1.674,3.821-3.739c0-1.802-1.302-3.305-3.035-3.66      c0.02-0.158,0.034-0.317,0.034-0.48c0-2.139-1.772-3.873-3.957-3.873c-1.29,0-2.433,0.607-3.155,1.543      c-0.185-2.381-2.358-4.218-4.9-3.913c-1.859,0.223-3.397,1.629-3.739,3.431c-0.11,0.578-0.098,1.139,0.011,1.665      c-0.498-0.525-1.208-0.856-1.998-0.856c-1.446,0-2.627,1.102-2.72,2.494c-0.657-0.142-1.371-0.133-2.123,0.143      c-1.438,0.528-2.462,1.853-2.522,3.356c-0.085,2.133,1.657,3.889,3.818,3.889c0.164,0,0.741,0,0.874,0h7.934 M65.982,72.063      h0.36" style="fill:#FDFCEF;"/>
				<path d="M75.999,72.563h-3.541c-0.276,0-0.5-0.224-0.5-0.5s0.224-0.5,0.5-0.5h3.541c1.831,0,3.32-1.453,3.32-3.239      c0-1.524-1.108-2.857-2.635-3.17c-0.256-0.052-0.429-0.293-0.396-0.553c0.018-0.137,0.029-0.276,0.029-0.417      c0-1.86-1.551-3.373-3.457-3.373c-1.092,0-2.098,0.491-2.759,1.348c-0.127,0.164-0.341,0.232-0.539,0.173      c-0.198-0.059-0.339-0.234-0.355-0.44c-0.079-1.019-0.565-1.944-1.37-2.604c-0.828-0.68-1.884-0.983-2.973-0.852      c-1.646,0.197-3.006,1.442-3.307,3.028c-0.094,0.494-0.091,0.988,0.01,1.471c0.045,0.219-0.06,0.441-0.258,0.544      c-0.198,0.104-0.44,0.063-0.595-0.099c-0.428-0.452-1.009-0.7-1.636-0.7c-1.169,0-2.145,0.891-2.221,2.027      c-0.01,0.145-0.082,0.279-0.198,0.366s-0.263,0.12-0.407,0.089c-0.639-0.139-1.242-0.098-1.845,0.124      c-1.262,0.464-2.144,1.632-2.195,2.906c-0.035,0.875,0.283,1.708,0.895,2.345c0.635,0.661,1.496,1.024,2.423,1.024h8.808      c0.276,0,0.5,0.224,0.5,0.5s-0.224,0.5-0.5,0.5h-8.808c-1.185,0-2.331-0.485-3.145-1.332c-0.802-0.835-1.218-1.928-1.172-3.077      c0.066-1.674,1.211-3.203,2.849-3.805c0.61-0.225,1.241-0.306,1.88-0.245c0.344-1.396,1.629-2.424,3.135-2.424      c0.493,0,0.977,0.113,1.414,0.323c0.009-0.242,0.037-0.484,0.083-0.726c0.381-2.009,2.097-3.586,4.17-3.834      c1.36-0.159,2.685,0.218,3.726,1.072c0.748,0.613,1.278,1.409,1.546,2.302c0.791-0.648,1.786-1.007,2.843-1.007      c2.458,0,4.457,1.961,4.457,4.373c0,0.034,0,0.068-0.001,0.102c1.764,0.555,3.003,2.188,3.003,4.038      C80.32,70.661,78.382,72.563,75.999,72.563z M66.341,72.563h-0.359c-0.276,0-0.5-0.224-0.5-0.5s0.224-0.5,0.5-0.5h0.359      c0.276,0,0.5,0.224,0.5,0.5S66.618,72.563,66.341,72.563z" style="fill:#472B29;"/>
			</g>
			<path d="M74.291,66.76c-0.018,0-0.037-0.002-0.055-0.006c-0.135-0.03-0.219-0.165-0.188-0.299     c0.038-0.167,0.095-0.327,0.169-0.479c0.604-1.223,2.274-1.674,3.722-1.007c0.125,0.058,0.18,0.207,0.122,0.332     c-0.058,0.125-0.207,0.179-0.332,0.122c-1.202-0.555-2.577-0.208-3.063,0.774c-0.058,0.116-0.101,0.24-0.13,0.367     C74.509,66.681,74.406,66.76,74.291,66.76z" style="fill:#472B29;"/>
		</g>
		<g>
			<path d="M69.133,72.563h-1.107c-0.276,0-0.5-0.224-0.5-0.5s0.224-0.5,0.5-0.5h1.107c0.276,0,0.5,0.224,0.5,0.5     S69.409,72.563,69.133,72.563z" style="fill:#472B29;"/>
		</g>
	</g>
	<g>
		<g>
			<path d="M74.374,25.723H64.343c-0.276,0-0.5-0.224-0.5-0.5s0.224-0.5,0.5-0.5h10.031c0.276,0,0.5,0.224,0.5,0.5     S74.65,25.723,74.374,25.723z" style="fill:#FFFFFF;"/>
			<path d="M77.255,25.723h-1.446c-0.276,0-0.5-0.224-0.5-0.5s0.224-0.5,0.5-0.5h1.446c0.276,0,0.5,0.224,0.5,0.5     S77.531,25.723,77.255,25.723z" style="fill:#FFFFFF;"/>
			<path d="M81.31,25.723h-2.546c-0.276,0-0.5-0.224-0.5-0.5s0.224-0.5,0.5-0.5h2.546c0.276,0,0.5,0.224,0.5,0.5     S81.586,25.723,81.31,25.723z" style="fill:#FFFFFF;"/>
		</g>
		<g>
			<path d="M81.31,27.587h-9.616c-0.276,0-0.5-0.224-0.5-0.5s0.224-0.5,0.5-0.5h9.616c0.276,0,0.5,0.224,0.5,0.5     S81.586,27.587,81.31,27.587z" style="fill:#FFFFFF;"/>
			<path d="M69.962,27.587h-0.58c-0.276,0-0.5-0.224-0.5-0.5s0.224-0.5,0.5-0.5h0.58c0.276,0,0.5,0.224,0.5,0.5     S70.238,27.587,69.962,27.587z" style="fill:#FFFFFF;"/>
			<path d="M67.585,27.587h-1.457c-0.276,0-0.5-0.224-0.5-0.5s0.224-0.5,0.5-0.5h1.457c0.276,0,0.5,0.224,0.5,0.5     S67.861,27.587,67.585,27.587z" style="fill:#FFFFFF;"/>
		</g>
		<path d="M76.721,23.858h-5.027c-0.276,0-0.5-0.224-0.5-0.5s0.224-0.5,0.5-0.5h5.027c0.276,0,0.5,0.224,0.5,0.5    S76.997,23.858,76.721,23.858z" style="fill:#FFFFFF;"/>
		<path d="M76.721,21.993h-1.257c-0.276,0-0.5-0.224-0.5-0.5s0.224-0.5,0.5-0.5h1.257c0.276,0,0.5,0.224,0.5,0.5    S76.997,21.993,76.721,21.993z" style="fill:#FFFFFF;"/>
		<path d="M73.452,29.453h-1.759c-0.276,0-0.5-0.224-0.5-0.5s0.224-0.5,0.5-0.5h1.759c0.276,0,0.5,0.224,0.5,0.5    S73.728,29.453,73.452,29.453z" style="fill:#FFFFFF;"/>
	</g>
</g>
<g id="letter_promotion">
	<g id="window_plug_1280_">
	</g>
</g>
<g id="window_promotion">
	<g id="window_plug_461_">
	</g>
</g>
<g id="window_explorer">
	<g id="window_plug_462_">
	</g>
</g>
<g id="window_exel">
	<g id="window_plug_463_">
	</g>
</g>
<g id="window_word">
	<g id="window_plug_464_">
	</g>
</g>
<g id="window_pdf">
	<g id="window_plug_465_">
	</g>
</g>
<g id="window_color">
	<g id="window_plug_466_">
	</g>
</g>
<g id="window_password">
	<g id="window_plug_467_">
	</g>
</g>
<g id="window_tools">
	<g id="window_plug_468_">
	</g>
</g>
<g id="window_idea">
	<g id="window_plug_469_">
	</g>
</g>
<g id="window_music">
	<g id="window_plug_470_">
	</g>
</g>
<g id="window_favorite">
	<g id="window_plug">
	</g>
</g>
<g id="window_other_1_">
	<g id="window_plug_1_">
	</g>
</g>
<g id="window_cloud_1_">
	<g id="window_plug_2_">
	</g>
</g>
<g id="window_security_1_">
	<g id="window_plug_3_">
	</g>
</g>
<g id="window_up_1_">
	<g id="window_plug_4_">
	</g>
</g>
<g id="window_star">
	<g id="window_plug_5_">
	</g>
</g>
<g id="window_sort">
	<g id="window_plug_6_">
	</g>
</g>
<g id="window_settings">
	<g id="window_plug_7_">
	</g>
</g>
<g id="window_search">
	<g id="window_plug_8_">
	</g>
</g>
<g id="window_energy">
	<g id="window_plug_9_">
	</g>
</g>
</svg>
