<?xml version="1.0" encoding="iso-8859-1"?>
<!-- Generator: Adobe Illustrator 22.1.0, SVG Export Plug-In . SVG Version: 6.00 Build 0)  -->
<svg xmlns="http://www.w3.org/2000/svg" xmlns:xlink="http://www.w3.org/1999/xlink" version="1.1" id="Layer_1" x="0px" y="0px" viewBox="0 0 64 64" style="enable-background:new 0 0 64 64;" xml:space="preserve" width="512px" height="512px">
<path style="fill:#72CAAF;" d="M55,57H9c-1.105,0-2-0.895-2-2V9c0-1.105,0.895-2,2-2h46c1.105,0,2,0.895,2,2v46  C57,56.105,56.105,57,55,57z"/>
<polygon style="fill:#97E0BB;" points="21.836,57 43.167,57 57,43.167 57,21.833 "/>
<polygon style="fill:#97E0BB;" points="7,51 7,55.01 55.01,7 51,7 50.96,7 7,50.97 "/>
<polygon style="fill:#97E0BB;" points="17.19,57 57,17.19 57,8.66 8.66,57 "/>
<path style="fill:#5DBC9D;" d="M10,51h44c1.657,0,3,1.343,3,3l0,0v1c0,1.105-0.895,2-2,2H9c-1.105,0-2-0.895-2-2v-1l0,0  C7,52.343,8.343,51,10,51z"/>
<polygon style="fill:#FFF8F8;" points="49.494,11 50.729,13.26 53,14.494 50.729,15.729 49.494,18 48.26,15.729 46,14.494   48.26,13.26 "/>
<polygon style="fill:#FFF8F8;" points="47.59,42.03 48.09,42.95 49,43.45 48.09,43.94 47.59,44.86 47.09,43.94 46.17,43.45   47.09,42.95 "/>
<polygon style="fill:#FFF8F8;" points="13.42,33 14.27,34.56 15.84,35.42 14.27,36.27 13.42,37.84 12.56,36.27 11,35.42   12.56,34.56 "/>
<path style="fill:#C2CDE7;" d="M48.26,28.902v-1.803c0.01-0.348-0.224-0.656-0.562-0.739l-3.762-0.939  c-0.261-0.067-0.465-0.271-0.532-0.532c-0.262-0.98-0.649-1.921-1.153-2.801c-0.132-0.229-0.132-0.51,0-0.739l1.996-3.333  c0.174-0.29,0.128-0.662-0.111-0.902l-1.271-1.271c-0.24-0.239-0.611-0.285-0.902-0.111l-3.311,2.018  c-0.229,0.132-0.51,0.132-0.739,0c-0.877-0.506-1.816-0.896-2.794-1.16c-0.261-0.067-0.465-0.271-0.532-0.532l-0.939-3.762  c-0.083-0.338-0.391-0.572-0.739-0.562h-1.811c-0.348-0.01-0.656,0.224-0.739,0.562l-0.939,3.762  c-0.067,0.261-0.271,0.465-0.532,0.532c-0.98,0.264-1.922,0.654-2.801,1.16c-0.229,0.132-0.51,0.132-0.739,0l-3.333-1.996  c-0.29-0.174-0.662-0.128-0.902,0.111l-1.249,1.279c-0.239,0.24-0.285,0.611-0.111,0.902l1.996,3.304  c0.132,0.229,0.132,0.51,0,0.739c-0.506,0.877-0.896,1.816-1.16,2.794c-0.067,0.261-0.271,0.465-0.532,0.532l-3.755,0.968  c-0.338,0.083-0.572,0.391-0.562,0.739v1.803c-0.01,0.348,0.224,0.656,0.562,0.739l3.762,0.939c0.261,0.067,0.465,0.271,0.532,0.532  c0.264,0.972,0.651,1.906,1.153,2.779c0.132,0.229,0.132,0.51,0,0.739l-1.996,3.333c-0.174,0.29-0.128,0.662,0.111,0.902  l1.271,1.271c0.24,0.239,0.611,0.285,0.902,0.111l3.311-2.018c0.229-0.132,0.51-0.132,0.739,0c0.877,0.506,1.816,0.896,2.794,1.16  c0.261,0.067,0.465,0.271,0.532,0.532l0.939,3.762c0.083,0.338,0.391,0.572,0.739,0.562h1.803c0.348,0.01,0.656-0.224,0.739-0.562  l0.939-3.762c0.067-0.261,0.271-0.465,0.532-0.532c0.983-0.263,1.927-0.654,2.809-1.16c0.229-0.132,0.51-0.132,0.739,0l3.333,1.996  c0.29,0.174,0.662,0.128,0.902-0.111l1.271-1.271c0.239-0.24,0.285-0.611,0.111-0.902l-2.018-3.311c-0.132-0.229-0.132-0.51,0-0.739  c0.506-0.877,0.896-1.816,1.16-2.794c0.067-0.261,0.271-0.465,0.532-0.532l3.762-0.939C48.044,29.561,48.275,29.25,48.26,28.902z"/>
<circle style="fill:#ACB7D0;" cx="32" cy="28" r="8"/>
<circle style="fill:#F9DD8F;" cx="32" cy="28" r="4"/>
<path style="fill:#8D6C9F;" d="M27,49c-0.552,0-1,0.447-1,1v2c0,0.553,0.448,1,1,1s1-0.447,1-1v-2C28,49.447,27.552,49,27,49z"/>
<path style="fill:#8D6C9F;" d="M32,49c-0.552,0-1,0.447-1,1v2c0,0.553,0.448,1,1,1c0.552,0,1-0.447,1-1v-2  C33,49.447,32.552,49,32,49z"/>
<path style="fill:#8D6C9F;" d="M37,49c-0.552,0-1,0.447-1,1v2c0,0.553,0.448,1,1,1s1-0.447,1-1v-2C38,49.447,37.552,49,37,49z"/>
<path style="fill:#8D6C9F;" d="M42,49c-0.552,0-1,0.447-1,1v2c0,0.553,0.448,1,1,1s1-0.447,1-1v-2C43,49.447,42.552,49,42,49z"/>
<path style="fill:#8D6C9F;" d="M47,49c-0.552,0-1,0.447-1,1v2c0,0.553,0.448,1,1,1s1-0.447,1-1v-2C48,49.447,47.552,49,47,49z"/>
<path style="fill:#8D6C9F;" d="M52,49c-0.552,0-1,0.447-1,1v2c0,0.553,0.448,1,1,1s1-0.447,1-1v-2C53,49.447,52.552,49,52,49z"/>
<path style="fill:#8D6C9F;" d="M22,49c-0.552,0-1,0.447-1,1v2c0,0.553,0.448,1,1,1s1-0.447,1-1v-2C23,49.447,22.552,49,22,49z"/>
<path style="fill:#8D6C9F;" d="M17,49c-0.552,0-1,0.447-1,1v2c0,0.553,0.448,1,1,1s1-0.447,1-1v-2C18,49.447,17.552,49,17,49z"/>
<path style="fill:#8D6C9F;" d="M12,49c-0.552,0-1,0.447-1,1v2c0,0.553,0.448,1,1,1s1-0.447,1-1v-2C13,49.447,12.552,49,12,49z"/>
<path style="fill:#8D6C9F;" d="M34,45h-4c-0.467,0-0.871-0.323-0.975-0.778l-0.869-3.815c-0.766-0.236-1.506-0.543-2.213-0.915  l-3.311,2.083c-0.395,0.246-0.908,0.19-1.239-0.14l-2.828-2.828c-0.33-0.33-0.388-0.845-0.14-1.239l2.083-3.311  c-0.372-0.707-0.679-1.447-0.915-2.213l-3.815-0.869C15.323,30.871,15,30.467,15,30v-4c0-0.467,0.323-0.871,0.778-0.975l3.815-0.869  c0.236-0.766,0.543-1.506,0.915-2.213l-2.083-3.311c-0.248-0.395-0.19-0.909,0.14-1.239l2.828-2.828  c0.331-0.331,0.845-0.386,1.239-0.14l3.311,2.083c0.707-0.372,1.447-0.679,2.213-0.915l0.869-3.815C29.129,11.323,29.533,11,30,11h4  c0.467,0,0.871,0.323,0.975,0.778l0.869,3.815c0.766,0.236,1.506,0.543,2.213,0.915l3.311-2.083c0.395-0.246,0.908-0.191,1.239,0.14  l2.828,2.828c0.33,0.33,0.388,0.845,0.14,1.239l-2.083,3.311c0.372,0.707,0.679,1.447,0.915,2.213l3.815,0.869  C48.677,25.129,49,25.533,49,26v4c0,0.467-0.323,0.871-0.778,0.975l-3.815,0.869c-0.236,0.766-0.543,1.506-0.915,2.213l2.083,3.311  c0.248,0.395,0.19,0.909-0.14,1.239l-2.828,2.828c-0.331,0.33-0.845,0.386-1.239,0.14l-3.311-2.083  c-0.707,0.372-1.447,0.679-2.213,0.915l-0.869,3.815C34.871,44.677,34.467,45,34,45z M30.798,43h2.404l0.823-3.615  c0.083-0.365,0.362-0.653,0.725-0.747c0.996-0.257,1.948-0.65,2.829-1.17c0.32-0.19,0.724-0.184,1.04,0.015l3.138,1.974l1.699-1.699  l-1.974-3.138c-0.199-0.316-0.205-0.718-0.015-1.04c0.52-0.881,0.913-1.833,1.17-2.829c0.094-0.362,0.382-0.642,0.747-0.725  L47,29.202v-2.404l-3.615-0.823c-0.365-0.083-0.653-0.362-0.747-0.725c-0.257-0.996-0.65-1.948-1.17-2.829  c-0.19-0.322-0.185-0.724,0.015-1.04l1.974-3.138l-1.699-1.699l-3.138,1.974c-0.315,0.199-0.719,0.205-1.04,0.015  c-0.881-0.52-1.833-0.913-2.829-1.17c-0.362-0.094-0.642-0.382-0.725-0.747L33.202,13h-2.404l-0.823,3.615  c-0.083,0.365-0.362,0.653-0.725,0.747c-0.996,0.257-1.948,0.65-2.829,1.17c-0.32,0.189-0.724,0.185-1.04-0.015l-3.138-1.974  l-1.699,1.699l1.974,3.138c0.199,0.316,0.205,0.718,0.015,1.04c-0.52,0.881-0.913,1.833-1.17,2.829  c-0.094,0.362-0.382,0.642-0.747,0.725L17,26.798v2.404l3.615,0.823c0.365,0.083,0.653,0.362,0.747,0.725  c0.257,0.996,0.65,1.948,1.17,2.829c0.19,0.322,0.185,0.724-0.015,1.04l-1.974,3.138l1.699,1.699l3.138-1.974  c0.317-0.197,0.72-0.205,1.04-0.015c0.881,0.52,1.833,0.913,2.829,1.17c0.362,0.094,0.642,0.382,0.725,0.747L30.798,43z"/>
<path style="fill:#8D6C9F;" d="M32,33c-2.757,0-5-2.243-5-5s2.243-5,5-5s5,2.243,5,5S34.757,33,32,33z M32,25c-1.654,0-3,1.346-3,3  s1.346,3,3,3s3-1.346,3-3S33.654,25,32,25z"/>
<circle style="fill:#8D6C9F;" cx="32" cy="28" r="1"/>
<path style="fill:#8D6C9F;" d="M38.24,24c-0.293,0-0.583-0.128-0.781-0.374c-0.303-0.378-0.668-0.739-1.084-1.073  c-0.432-0.345-0.501-0.975-0.155-1.406c0.346-0.43,0.974-0.5,1.405-0.155c0.53,0.425,1,0.89,1.395,1.381  c0.346,0.431,0.276,1.06-0.154,1.406C38.681,23.928,38.46,24,38.24,24z"/>
<path style="fill:#8D6C9F;" d="M32,37c-4.963,0-9-4.038-9-9s4.037-9,9-9c0.347,0,0.703,0.024,1.124,0.077  c0.548,0.068,0.937,0.568,0.868,1.116c-0.069,0.548-0.566,0.941-1.116,0.868C32.589,21.026,32.298,21,32,21c-3.859,0-7,3.14-7,7  s3.141,7,7,7s7-3.14,7-7c0-0.295-0.021-0.585-0.059-0.87c-0.072-0.548,0.313-1.05,0.861-1.122c0.546-0.071,1.05,0.314,1.121,0.861  C40.975,27.253,41,27.633,41,28C41,32.962,36.963,37,32,37z"/>
<path style="fill:#8D6C9F;" d="M55,6H9C7.346,6,6,7.346,6,9v46c0,1.654,1.346,3,3,3h46c1.654,0,3-1.346,3-3.125v-46  C58,7.346,56.654,6,55,6z M56,55c0,0.552-0.449,1-1,1H9c-0.551,0-1-0.448-1-1V9c0-0.552,0.449-1,1-1h46c0.551,0,1,0.448,1,1V55z"/>
</svg>
