<?xml version="1.0" encoding="iso-8859-1"?>
<!-- Generator: Adobe Illustrator 22.1.0, SVG Export Plug-In . SVG Version: 6.00 Build 0)  -->
<svg xmlns="http://www.w3.org/2000/svg" xmlns:xlink="http://www.w3.org/1999/xlink" version="1.1" id="Layer_1" x="0px" y="0px" viewBox="0 0 100 100" style="enable-background:new 0 0 100 100;" xml:space="preserve" width="500px" height="500px">
<g>
	<g>
		<g>
			<g>
				<g>
					<circle style="fill:#F1BC19;" cx="77" cy="13" r="1"/>
				</g>
				<g>
					<circle style="fill:#E4E4F9;" cx="50" cy="50" r="37"/>
				</g>
				<g>
					<circle style="fill:#F1BC19;" cx="83" cy="15" r="4"/>
				</g>
				<g>
					<circle style="fill:#8889B9;" cx="87" cy="24" r="2"/>
				</g>
				<g>
					<circle style="fill:#FBCD59;" cx="81" cy="76" r="2"/>
				</g>
				<g>
					<circle style="fill:#FBCD59;" cx="15" cy="63" r="4"/>
				</g>
				<g>
					<circle style="fill:#8889B9;" cx="25" cy="87" r="2"/>
				</g>
				<g>
					<circle style="fill:#FFFFFF;" cx="79.5" cy="33.5" r="1.5"/>
				</g>
			</g>
		</g>
	</g>
</g>
<g>
	<g>
		<path style="fill:#FFFEF4;" d="M29.917,63.3c-1.773,0-3.216-1.443-3.216-3.217V27.917c0-1.773,1.443-3.217,3.216-3.217h22.167    c1.773,0,3.216,1.443,3.216,3.217v32.166c0,1.773-1.443,3.217-3.216,3.217H29.917z"/>
	</g>
	<g>
		<path style="fill:#472B29;" d="M52.083,25.4c1.388,0,2.517,1.129,2.517,2.517v32.167c0,1.388-1.129,2.517-2.517,2.517H29.917    c-1.388,0-2.517-1.129-2.517-2.517V27.917c0-1.388,1.129-2.517,2.517-2.517H52.083 M52.083,24H29.917    C27.754,24,26,25.754,26,27.917v32.167C26,62.246,27.754,64,29.917,64h22.167C54.246,64,56,62.246,56,60.083V27.917    C56,25.754,54.246,24,52.083,24L52.083,24z"/>
	</g>
</g>
<g>
	<g>
		<path style="fill:#FFFEF4;" d="M35.917,67.3c-1.773,0-3.216-1.443-3.216-3.217V31.917c0-1.773,1.443-3.217,3.216-3.217h23.167    c1.773,0,3.216,1.443,3.216,3.217v32.166c0,1.773-1.443,3.217-3.216,3.217H35.917z"/>
	</g>
	<g>
		<path style="fill:#472B29;" d="M59.083,29.4c1.388,0,2.517,1.129,2.517,2.517v32.167c0,1.388-1.129,2.517-2.517,2.517H35.917    c-1.388,0-2.517-1.129-2.517-2.517V31.917c0-1.388,1.129-2.517,2.517-2.517H59.083 M59.083,28H35.917    C33.754,28,32,29.754,32,31.917v32.167C32,66.246,33.754,68,35.917,68h23.167C61.246,68,63,66.246,63,64.083V31.917    C63,29.754,61.246,28,59.083,28L59.083,28z"/>
	</g>
</g>
<g>
	<g>
		<path style="fill:#FFFEF4;" d="M41.917,71.3c-1.773,0-3.216-1.443-3.216-3.217V35.917c0-1.773,1.443-3.217,3.216-3.217h23.167    c1.773,0,3.216,1.443,3.216,3.217v32.166c0,1.773-1.443,3.217-3.216,3.217H41.917z"/>
	</g>
	<g>
		<path style="fill:#472B29;" d="M65.083,33.4c1.388,0,2.517,1.129,2.517,2.517v32.167c0,1.388-1.129,2.517-2.517,2.517H41.917    c-1.388,0-2.517-1.129-2.517-2.517V35.917c0-1.388,1.129-2.517,2.517-2.517H65.083 M65.083,32H41.917    C39.754,32,38,33.754,38,35.917v32.167C38,70.246,39.754,72,41.917,72h23.167C67.246,72,69,70.246,69,68.083V35.917    C69,33.754,67.246,32,65.083,32L65.083,32z"/>
	</g>
</g>
<g>
	<g>
		<polyline style="fill:#FFFEF4;" points="57.069,48.764 54.342,42.015 61.091,44.743   "/>
		<path style="fill:#472B29;" d="M56.42,49.027l-2.728-6.749c-0.105-0.261-0.045-0.559,0.154-0.758    c0.199-0.198,0.499-0.258,0.757-0.154l6.749,2.727l-0.524,1.299l-5.22-2.109l2.109,5.22L56.42,49.027z"/>
	</g>
	<g>
		<g>
			<path style="fill:#EF7D99;" d="M76.183,66.652c-0.75,0-1.454-0.29-1.979-0.816l-2.122-2.121c-1.092-1.092-1.092-2.868,0-3.959     c0.526-0.526,1.229-0.816,1.98-0.816c0.75,0,1.454,0.29,1.979,0.816l2.122,2.121c0.526,0.526,0.816,1.229,0.816,1.979     c0,0.751-0.29,1.454-0.815,1.979C77.637,66.362,76.934,66.652,76.183,66.652z"/>
		</g>
		<g>
			<path style="fill:#472B29;" d="M74.062,59.639c0.564,0,1.091,0.217,1.485,0.611l2.121,2.121c0.819,0.819,0.819,2.151,0,2.97     c-0.394,0.394-0.921,0.611-1.485,0.611s-1.091-0.217-1.485-0.611l-2.121-2.121c-0.819-0.819-0.819-2.151,0-2.97     C72.971,59.856,73.498,59.639,74.062,59.639 M74.062,58.24c-0.897,0-1.794,0.34-2.475,1.021c-1.361,1.361-1.361,3.589,0,4.95     l2.121,2.121c0.681,0.681,1.578,1.021,2.475,1.021s1.794-0.34,2.475-1.021c1.361-1.361,1.361-3.588,0-4.95l-2.121-2.121     C75.856,58.58,74.959,58.24,74.062,58.24L74.062,58.24z"/>
		</g>
	</g>
	<g>
		<g>
			
				<rect x="63.837" y="44.011" transform="matrix(0.7072 -0.707 0.707 0.7072 -18.8868 63.0163)" style="fill:#F2DF5E;" width="5.6" height="20.6"/>
		</g>
		<g>
			<path style="fill:#472B29;" d="M61.334,46.038L74.91,59.614l-2.97,2.97L58.364,49.007L61.334,46.038 M61.334,44.058l-4.95,4.95     l15.556,15.556l4.95-4.95L61.334,44.058L61.334,44.058z"/>
		</g>
	</g>
	<g>
		<g>
			
				<rect x="71.262" y="59.935" transform="matrix(0.7071 -0.7071 0.7071 0.7071 -21.9611 70.4515)" style="fill:#88CDD7;" width="5.6" height="3.6"/>
		</g>
		<g>
			<path style="fill:#472B29;" d="M74.769,59.473l1.556,1.555l-2.97,2.97l-1.556-1.555L74.769,59.473 M74.769,57.493l-4.95,4.95     l3.536,3.535l4.95-4.95L74.769,57.493L74.769,57.493z"/>
		</g>
	</g>
</g>
<g>
	<path style="fill:#472B29;" d="M53.5,40h-10c-0.276,0-0.5-0.224-0.5-0.5s0.224-0.5,0.5-0.5h10c0.276,0,0.5,0.224,0.5,0.5   S53.776,40,53.5,40z"/>
</g>
<g>
	<path style="fill:#472B29;" d="M51.5,45h-8c-0.276,0-0.5-0.224-0.5-0.5s0.224-0.5,0.5-0.5h8c0.276,0,0.5,0.224,0.5,0.5   S51.776,45,51.5,45z"/>
</g>
<g>
	<path style="fill:#472B29;" d="M53.5,50h-10c-0.276,0-0.5-0.224-0.5-0.5s0.224-0.5,0.5-0.5h10c0.276,0,0.5,0.224,0.5,0.5   S53.776,50,53.5,50z"/>
</g>
<g>
	<path style="fill:#472B29;" d="M63.5,60h-20c-0.276,0-0.5-0.224-0.5-0.5s0.224-0.5,0.5-0.5h20c0.276,0,0.5,0.224,0.5,0.5   S63.776,60,63.5,60z"/>
</g>
<g>
	<path style="fill:#472B29;" d="M63.5,65h-14c-0.276,0-0.5-0.224-0.5-0.5s0.224-0.5,0.5-0.5h14c0.276,0,0.5,0.224,0.5,0.5   S63.776,65,63.5,65z"/>
</g>
<g>
	<path style="fill:#472B29;" d="M47.5,55h-4c-0.276,0-0.5-0.224-0.5-0.5s0.224-0.5,0.5-0.5h4c0.276,0,0.5,0.224,0.5,0.5   S47.776,55,47.5,55z"/>
</g>
<g>
	<path style="fill:#472B29;" d="M47.5,65h-4c-0.276,0-0.5-0.224-0.5-0.5s0.224-0.5,0.5-0.5h4c0.276,0,0.5,0.224,0.5,0.5   S47.776,65,47.5,65z"/>
</g>
<g>
	<path style="fill:#472B29;" d="M58.5,55h-8c-0.276,0-0.5-0.224-0.5-0.5s0.224-0.5,0.5-0.5h8c0.276,0,0.5,0.224,0.5,0.5   S58.776,55,58.5,55z"/>
</g>
<g>
	<path style="fill:#472B29;" d="M64.5,40h-8c-0.276,0-0.5-0.224-0.5-0.5s0.224-0.5,0.5-0.5h8c0.276,0,0.5,0.224,0.5,0.5   S64.776,40,64.5,40z"/>
</g>
</svg>
