<?xml version="1.0" encoding="utf-8"?>
<!-- Generator: Adobe Illustrator 21.0.0, SVG Export Plug-In . SVG Version: 6.00 Build 0)  -->
<svg xmlns="http://www.w3.org/2000/svg" xmlns:xlink="http://www.w3.org/1999/xlink" version="1.1" x="0px" y="0px" viewBox="0 0 100 100" style="enable-background:new 0 0 100 100;" xml:space="preserve" width="500px" height="500px">

<g id="mobile_shop_addres">
	<g id="flag_1956_">
	</g>
</g>
<g id="mobile_shop_coins">
	<g id="flag_1957_">
	</g>
</g>
<g id="mobile_shop_wallet">
	<g id="flag_1958_">
	</g>
</g>
<g id="mobile_shop_secured_login">
	<g id="flag_1959_">
	</g>
</g>
<g id="mobile_shop_star">
	<g id="flag_1960_">
	</g>
</g>
<g id="mobile_shop_favorite">
	<g id="flag_1961_">
	</g>
</g>
<g id="mobile_shop_credit">
	<g id="flag_1962_">
	</g>
</g>
<g id="mobile_shop_bag">
	<g id="flag_1963_">
	</g>
</g>
<g id="mobile_shop_cards">
	<g id="flag_1964_">
	</g>
</g>
<g id="mobile_shop_swipe">
	<g id="flag_1965_">
	</g>
</g>
<g id="cart_money">
	<g id="flag_1920_">
	</g>
</g>
<g id="cart_star">
	<g id="flag_1921_">
	</g>
</g>
<g id="cart_full">
	<g id="flag_1922_">
	</g>
</g>
<g id="cart_promotion">
	<g id="flag_1923_">
	</g>
</g>
<g id="cart_remove_product">
	<g id="flag_1924_">
	</g>
</g>
<g id="cart_add_product">
	<g id="flag_1925_">
	</g>
</g>
<g id="chat_edit">
	<g id="flag_1834_">
	</g>
</g>
<g id="chat_professional">
	<g id="flag_1835_">
	</g>
</g>
<g id="chat_sad">
	<g id="flag_1836_">
	</g>
</g>
<g id="chat_private">
	<g id="flag_1837_">
	</g>
</g>
<g id="chat_money">
	<g id="flag_1838_">
	</g>
</g>
<g id="chat_messages">
	<g id="flag_1839_">
	</g>
</g>
<g id="portal_finance">
	<g id="flag_1765_">
	</g>
</g>
<g id="portal_travel">
</g>
<g id="portal_design">
	<g id="flag_1767_">
	</g>
</g>
<g id="portal_flowers">
	<g id="flag_1759_">
	</g>
</g>
<g id="portal_law">
	<g id="flag_1760_">
	</g>
</g>
<g id="portal_movie">
	<g id="flag_1761_">
	</g>
</g>
<g id="portal_women">
	<g id="flag_1762_">
	</g>
</g>
<g id="fashon_security">
	<g id="flag_1763_">
	</g>
</g>
<g id="fashon_weather">
	<g id="background_round_72_">
		<g id="flag_1764_">
		</g>
	</g>
</g>
<g id="fashon_portal">
</g>
<g id="bookmark_delete">
	<g id="flag_1627_">
	</g>
</g>
<g id="bookmark_three">
	<g id="flag_1628_">
	</g>
</g>
<g id="bookmark_remove">
	<g id="flag_1629_">
	</g>
</g>
<g id="bookmark_add">
	<g id="flag_1630_">
	</g>
</g>
<g id="bookmark">
	<g id="flag_1515_">
	</g>
</g>
<g id="password_book">
	<g id="flag_1171_">
	</g>
</g>
<g id="important_book">
	<g id="flag_1172_">
	</g>
</g>
<g id="phone_book">
	<g id="flag_1590_">
	</g>
</g>
<g id="music_hour">
	<g id="flag_1001_">
	</g>
</g>
<g id="dinner_hour">
	<g id="flag_1002_">
	</g>
</g>
<g id="drink_hour">
	<g id="flag_1003_">
	</g>
</g>
<g id="dentist_hour">
	<g id="flag_1004_">
	</g>
</g>
<g id="skype_hour">
	<g id="flag_1005_">
	</g>
</g>
<g id="meeting_hour">
	<g id="flag_1006_">
	</g>
</g>
<g id="important_hour">
	<g id="flag_1007_">
	</g>
</g>
<g id="money_hour">
	<g id="flag_1008_">
	</g>
</g>
<g id="phone_hour">
	<g id="flag_1009_">
	</g>
</g>
<g id="date_hour">
	<g id="flag_1010_">
	</g>
</g>
<g id="birthday_day">
	<g id="flag_750_">
	</g>
</g>
<g id="concert_day">
	<g id="flag_749_">
	</g>
</g>
<g id="date_day">
	<g id="flag_748_">
	</g>
</g>
<g id="month_in_love">
	<g id="flag_747_">
	</g>
</g>
<g id="edit_month">
	<g id="flag_746_">
	</g>
</g>
<g id="precious_month">
	<g id="flag_745_">
	</g>
</g>
<g id="maintenance_month">
	<g id="flag_744_">
	</g>
</g>
<g id="importand_month">
	<g id="flag_743_">
	</g>
</g>
<g id="pay_month">
	<g id="flag_742_">
	</g>
</g>
<g id="honeymoon">
	<g id="flag_741_">
	</g>
</g>
<g id="cloud_refresh">
	<g id="flag_371_">
	</g>
</g>
<g id="cloud_lock">
	<g id="flag_372_">
	</g>
</g>
<g id="cloud_clock">
	<g id="flag_373_">
	</g>
</g>
<g id="cloud_direction_right">
	<g id="flag_374_">
	</g>
</g>
<g id="cloud_direction_left">
	<g id="flag_375_">
	</g>
</g>
<g id="cloud_mail">
	<g id="flag_376_">
	</g>
</g>
<g id="cloud_data_transfer">
	<g id="flag_377_">
	</g>
</g>
<g id="cloud_idea">
	<g id="flag_378_">
	</g>
</g>
<g id="cloud_download">
	<path d="M88.704,55.881c0.3-0.616,0.566-1.264,0.796-1.943c2.633-7.77-1.349-17.078-9.733-19.325   C78.86,23.23,70.86,15.421,61.826,14.088c-10.341-1.525-19.814,5.044-22.966,15.485c-3.799-1.346-7.501-1.182-10.99,0.857   c-1.583,0.732-3.031,1.812-4.33,3.233c-1.907,2.086-3.147,4.719-3.652,7.495c-0.748,0.118-1.483,0.236-2.176,0.484   c-4.04,1.449-6.589,4.431-7.288,8.923c-0.435,2.797,0.443,5.587,0.933,6.714c1.935,4.455,6.422,6.98,10.981,6.312   c0.227-0.033,0.557,0.069,0.752,0.233c0.241,7.12,3.698,13.417,8.884,17.014c8.321,5.772,19.027,3.994,25.781-3.921   c2.894,2.96,6.338,4.398,10.384,3.876c4.023-0.519,7.147-2.739,9.426-6.349c1.053,0.283,2.051,0.691,3.083,0.804   c4.042,0.442,7.324-1.165,9.732-4.8c0.922-1.391,1.793-3.194,1.793-6.354C92.174,60.838,90.88,57.871,88.704,55.881z" style="fill:#C7EDE6;"/>
	<g>
		<g>
			<path d="M18.369,47.917H8.338c-0.276,0-0.5-0.224-0.5-0.5s0.224-0.5,0.5-0.5h10.031c0.276,0,0.5,0.224,0.5,0.5     S18.645,47.917,18.369,47.917z" style="fill:#FFFFFF;"/>
			<path d="M21.249,47.917h-1.446c-0.276,0-0.5-0.224-0.5-0.5s0.224-0.5,0.5-0.5h1.446c0.276,0,0.5,0.224,0.5,0.5     S21.526,47.917,21.249,47.917z" style="fill:#FFFFFF;"/>
			<path d="M25.304,47.917h-2.546c-0.276,0-0.5-0.224-0.5-0.5s0.224-0.5,0.5-0.5h2.546c0.276,0,0.5,0.224,0.5,0.5     S25.58,47.917,25.304,47.917z" style="fill:#FFFFFF;"/>
		</g>
		<g>
			<path d="M25.304,49.782h-9.616c-0.276,0-0.5-0.224-0.5-0.5s0.224-0.5,0.5-0.5h9.616c0.276,0,0.5,0.224,0.5,0.5     S25.58,49.782,25.304,49.782z" style="fill:#FFFFFF;"/>
			<path d="M13.956,49.782h-0.58c-0.276,0-0.5-0.224-0.5-0.5s0.224-0.5,0.5-0.5h0.58c0.276,0,0.5,0.224,0.5,0.5     S14.233,49.782,13.956,49.782z" style="fill:#FFFFFF;"/>
			<path d="M11.58,49.782h-1.457c-0.276,0-0.5-0.224-0.5-0.5s0.224-0.5,0.5-0.5h1.457c0.276,0,0.5,0.224,0.5,0.5     S11.856,49.782,11.58,49.782z" style="fill:#FFFFFF;"/>
		</g>
		<path d="M20.715,46.053h-5.027c-0.276,0-0.5-0.224-0.5-0.5s0.224-0.5,0.5-0.5h5.027c0.276,0,0.5,0.224,0.5,0.5    S20.992,46.053,20.715,46.053z" style="fill:#FFFFFF;"/>
		<path d="M20.715,44.187h-1.257c-0.276,0-0.5-0.224-0.5-0.5s0.224-0.5,0.5-0.5h1.257c0.276,0,0.5,0.224,0.5,0.5    S20.992,44.187,20.715,44.187z" style="fill:#FFFFFF;"/>
		<path d="M17.447,51.647h-1.759c-0.276,0-0.5-0.224-0.5-0.5s0.224-0.5,0.5-0.5h1.759c0.276,0,0.5,0.224,0.5,0.5    S17.723,51.647,17.447,51.647z" style="fill:#FFFFFF;"/>
	</g>
	<g>
		<g>
			<path d="M71.546,21.64h-10.03c-0.276,0-0.5-0.224-0.5-0.5s0.224-0.5,0.5-0.5h10.03c0.276,0,0.5,0.224,0.5,0.5     S71.823,21.64,71.546,21.64z" style="fill:#FFFFFF;"/>
			<path d="M74.428,21.64h-1.446c-0.276,0-0.5-0.224-0.5-0.5s0.224-0.5,0.5-0.5h1.446c0.276,0,0.5,0.224,0.5,0.5     S74.704,21.64,74.428,21.64z" style="fill:#FFFFFF;"/>
			<path d="M78.482,21.64h-2.546c-0.276,0-0.5-0.224-0.5-0.5s0.224-0.5,0.5-0.5h2.546c0.276,0,0.5,0.224,0.5,0.5     S78.758,21.64,78.482,21.64z" style="fill:#FFFFFF;"/>
		</g>
		<g>
			<path d="M76.456,17.91H66.84c-0.276,0-0.5-0.224-0.5-0.5s0.224-0.5,0.5-0.5h9.617c0.276,0,0.5,0.224,0.5,0.5     S76.733,17.91,76.456,17.91z" style="fill:#FFFFFF;"/>
			<path d="M65.108,17.91h-0.58c-0.276,0-0.5-0.224-0.5-0.5s0.224-0.5,0.5-0.5h0.58c0.276,0,0.5,0.224,0.5,0.5     S65.385,17.91,65.108,17.91z" style="fill:#FFFFFF;"/>
			<path d="M62.731,17.91h-1.456c-0.276,0-0.5-0.224-0.5-0.5s0.224-0.5,0.5-0.5h1.456c0.276,0,0.5,0.224,0.5,0.5     S63.008,17.91,62.731,17.91z" style="fill:#FFFFFF;"/>
		</g>
		<path d="M73.893,19.776h-5.027c-0.276,0-0.5-0.224-0.5-0.5s0.224-0.5,0.5-0.5h5.027c0.276,0,0.5,0.224,0.5,0.5    S74.169,19.776,73.893,19.776z" style="fill:#FFFFFF;"/>
		<path d="M73.893,17.91h-1.257c-0.276,0-0.5-0.224-0.5-0.5s0.224-0.5,0.5-0.5h1.257c0.276,0,0.5,0.224,0.5,0.5    S74.169,17.91,73.893,17.91z" style="fill:#FFFFFF;"/>
		<path d="M67.411,19.776h-1.759c-0.276,0-0.5-0.224-0.5-0.5s0.224-0.5,0.5-0.5h1.759c0.276,0,0.5,0.224,0.5,0.5    S67.687,19.776,67.411,19.776z" style="fill:#FFFFFF;"/>
	</g>
	<g>
		<g>
			<g>
				<path d="M45.311,43.395c1.883,0,3.517,0,3.54,0c2.11,0,3.821-1.674,3.821-3.739c0-1.802-1.302-3.305-3.035-3.66      c0.02-0.158,0.034-0.317,0.034-0.48c0-2.139-1.772-3.873-3.957-3.873c-1.29,0-2.433,0.607-3.155,1.543      c-0.185-2.381-2.358-4.218-4.9-3.913c-1.859,0.223-3.397,1.629-3.739,3.431c-0.11,0.578-0.098,1.139,0.011,1.665      c-0.498-0.525-1.208-0.856-1.998-0.856c-1.446,0-2.627,1.102-2.72,2.494c-0.657-0.142-1.371-0.133-2.123,0.143      c-1.438,0.528-2.462,1.853-2.522,3.356c-0.085,2.133,1.657,3.889,3.818,3.889c0.164,0,0.741,0,0.874,0h7.934 M38.834,43.395      h0.36" style="fill:#FDFCEF;"/>
				<path d="M48.851,43.895h-3.54c-0.276,0-0.5-0.224-0.5-0.5s0.224-0.5,0.5-0.5h3.54c1.831,0,3.321-1.453,3.321-3.239      c0-1.524-1.108-2.857-2.636-3.17c-0.256-0.052-0.429-0.293-0.396-0.553c0.018-0.137,0.03-0.276,0.03-0.417      c0-1.86-1.551-3.373-3.457-3.373c-1.092,0-2.098,0.491-2.76,1.348c-0.126,0.164-0.34,0.233-0.539,0.173      c-0.198-0.059-0.339-0.234-0.355-0.44c-0.079-1.019-0.565-1.943-1.369-2.603c-0.829-0.681-1.887-0.983-2.973-0.852      c-1.646,0.197-3.006,1.442-3.307,3.028c-0.094,0.494-0.091,0.989,0.009,1.47c0.045,0.219-0.06,0.441-0.258,0.544      c-0.197,0.104-0.44,0.064-0.595-0.099c-0.428-0.452-1.009-0.7-1.635-0.7c-1.169,0-2.145,0.891-2.221,2.028      c-0.01,0.145-0.082,0.279-0.198,0.366s-0.263,0.119-0.407,0.089c-0.639-0.139-1.242-0.099-1.845,0.124      c-1.262,0.463-2.144,1.631-2.195,2.906c-0.035,0.875,0.283,1.708,0.895,2.345c0.635,0.661,1.495,1.024,2.423,1.024h8.808      c0.276,0,0.5,0.224,0.5,0.5s-0.224,0.5-0.5,0.5h-8.808c-1.185,0-2.331-0.485-3.144-1.332c-0.803-0.835-1.219-1.928-1.173-3.078      c0.067-1.675,1.212-3.204,2.849-3.805c0.609-0.225,1.239-0.307,1.88-0.245c0.344-1.396,1.629-2.424,3.135-2.424      c0.493,0,0.977,0.113,1.414,0.323c0.009-0.241,0.037-0.483,0.083-0.725c0.381-2.01,2.096-3.586,4.17-3.834      c1.364-0.161,2.685,0.218,3.726,1.072c0.748,0.614,1.278,1.41,1.547,2.302c0.791-0.648,1.786-1.007,2.842-1.007      c2.458,0,4.457,1.962,4.457,4.373c0,0.034,0,0.068-0.001,0.103c1.764,0.555,3.003,2.188,3.003,4.038      C53.172,41.993,51.234,43.895,48.851,43.895z M39.194,43.895h-0.36c-0.276,0-0.5-0.224-0.5-0.5s0.224-0.5,0.5-0.5h0.36      c0.276,0,0.5,0.224,0.5,0.5S39.47,43.895,39.194,43.895z" style="fill:#472B29;"/>
			</g>
			<path d="M47.144,38.092c-0.018,0-0.036-0.002-0.055-0.006c-0.135-0.03-0.219-0.164-0.189-0.299     c0.037-0.165,0.094-0.327,0.17-0.479c0.605-1.223,2.275-1.675,3.722-1.006c0.125,0.058,0.18,0.207,0.122,0.332     c-0.058,0.126-0.207,0.18-0.332,0.122c-1.203-0.554-2.578-0.209-3.063,0.774c-0.058,0.117-0.102,0.241-0.13,0.367     C47.362,38.012,47.259,38.092,47.144,38.092z" style="fill:#472B29;"/>
		</g>
		<g>
			<path d="M41.985,43.895h-1.107c-0.276,0-0.5-0.224-0.5-0.5s0.224-0.5,0.5-0.5h1.107c0.276,0,0.5,0.224,0.5,0.5     S42.262,43.895,41.985,43.895z" style="fill:#472B29;"/>
		</g>
	</g>
	<g id="flag_379_">
	</g>
	<g>
		<g>
			<g>
				<path d="M67.742,60.297c0,0,4.642,0,4.742,0c3.792,0,6.866-3.074,6.866-6.866c0-3.308-2.34-6.069-5.455-6.72      c0.036-0.29,0.06-0.583,0.06-0.882c0-3.928-3.184-7.111-7.111-7.111c-2.319,0-4.372,1.115-5.67,2.832      c-0.332-4.372-4.237-7.745-8.806-7.186c-3.341,0.409-6.104,2.991-6.719,6.3c-0.197,1.061-0.177,2.092,0.02,3.058      c-0.896-0.965-2.171-1.572-3.591-1.572c-2.599,0-4.72,2.023-4.888,4.58c-1.18-0.261-2.464-0.244-3.816,0.263      c-2.584,0.97-4.425,3.403-4.532,6.161c-0.153,3.917,2.977,7.141,6.86,7.141c0.295,0,1.331,0,1.571,0h14.257" style="fill:#77CBD2;"/>
				<path d="M72.484,60.997h-4.742c-0.387,0-0.7-0.313-0.7-0.7s0.313-0.7,0.7-0.7h4.742c3.4,0,6.166-2.766,6.166-6.166      c0-2.904-2.06-5.441-4.897-6.035c-0.356-0.074-0.596-0.409-0.552-0.771c0.032-0.262,0.055-0.526,0.055-0.797      c0-3.535-2.875-6.411-6.411-6.411c-2.021,0-3.884,0.931-5.111,2.554c-0.176,0.232-0.476,0.332-0.756,0.25      c-0.279-0.082-0.479-0.328-0.5-0.618c-0.147-1.935-1.095-3.752-2.6-4.986c-1.52-1.246-3.445-1.799-5.423-1.558      c-3.043,0.372-5.558,2.729-6.116,5.733c-0.174,0.938-0.168,1.876,0.018,2.792c0.062,0.307-0.087,0.619-0.366,0.762      c-0.28,0.144-0.62,0.083-0.833-0.146c-0.807-0.87-1.9-1.348-3.078-1.348c-2.205,0-4.045,1.724-4.189,3.926      c-0.014,0.204-0.115,0.391-0.278,0.514c-0.164,0.123-0.373,0.166-0.571,0.124c-1.183-0.261-2.3-0.184-3.418,0.235      c-2.345,0.88-3.984,3.104-4.079,5.533c-0.066,1.696,0.543,3.302,1.716,4.522c1.174,1.22,2.752,1.892,4.445,1.892h15.828      c0.387,0,0.7,0.313,0.7,0.7s-0.313,0.7-0.7,0.7H35.703c-2.077,0-4.014-0.825-5.454-2.322c-1.44-1.497-2.188-3.467-2.107-5.547      c0.117-2.986,2.121-5.714,4.986-6.789c1.124-0.422,2.288-0.562,3.466-0.419c0.528-2.56,2.804-4.469,5.483-4.469      c0.962,0,1.904,0.253,2.733,0.718c-0.001-0.542,0.049-1.087,0.15-1.632c0.668-3.597,3.679-6.421,7.322-6.867      c2.359-0.292,4.661,0.374,6.481,1.864c1.411,1.156,2.412,2.742,2.863,4.487c1.421-1.287,3.258-2.004,5.217-2.004      c4.307,0,7.811,3.504,7.811,7.812c0,0.118-0.003,0.235-0.01,0.351c3.166,0.944,5.404,3.899,5.404,7.251      C80.05,57.603,76.656,60.997,72.484,60.997z" style="fill:#472B29;"/>
			</g>
			<path d="M68.817,50.35c-0.018,0-0.037-0.002-0.056-0.006c-0.135-0.031-0.219-0.165-0.188-0.299     c0.067-0.296,0.168-0.585,0.301-0.858c1.076-2.227,3.991-3.078,6.496-1.896c0.125,0.059,0.179,0.208,0.12,0.333     c-0.059,0.126-0.209,0.178-0.333,0.12c-2.258-1.066-4.875-0.32-5.833,1.662c-0.116,0.24-0.205,0.493-0.264,0.752     C69.035,50.272,68.932,50.35,68.817,50.35z" style="fill:#472B29;"/>
		</g>
	</g>
	<g>
		<g>
			<path d="M77.215,69.882c0,0,10.309,0,10.371,0c2.381,0,4.31-1.93,4.31-4.311c0-2.077-1.469-3.81-3.425-4.219     c0.023-0.182,0.038-0.366,0.038-0.554c0-2.466-1.999-4.465-4.464-4.465c-1.456,0-2.745,0.7-3.56,1.778     c-0.208-2.745-2.66-4.862-5.528-4.511c-2.097,0.257-3.832,1.878-4.218,3.955c-0.124,0.666-0.111,1.313,0.012,1.92     c-0.562-0.606-1.363-0.987-2.254-0.987c-1.632,0-2.963,1.27-3.069,2.875c-0.741-0.164-1.547-0.153-2.396,0.165     c-1.622,0.609-2.778,2.137-2.845,3.868c-0.096,2.459,1.869,4.483,4.307,4.483c0.185,0,0.836,0,0.986,0h8.951" style="fill:#FDFCEF;"/>
			<path d="M87.587,70.382H77.215c-0.276,0-0.5-0.224-0.5-0.5s0.224-0.5,0.5-0.5h10.372c2.101,0,3.81-1.709,3.81-3.811     c0-1.794-1.273-3.363-3.027-3.729c-0.254-0.053-0.426-0.292-0.394-0.551c0.02-0.161,0.034-0.325,0.034-0.492     c0-2.186-1.778-3.965-3.964-3.965c-1.25,0-2.402,0.576-3.161,1.58c-0.125,0.167-0.339,0.241-0.54,0.178     c-0.199-0.059-0.342-0.234-0.357-0.441c-0.091-1.199-0.678-2.324-1.61-3.088c-0.941-0.772-2.134-1.114-3.359-0.965     c-1.884,0.23-3.442,1.69-3.787,3.551c-0.108,0.58-0.104,1.162,0.011,1.729c0.044,0.219-0.063,0.442-0.262,0.544     c-0.199,0.103-0.442,0.061-0.595-0.105c-0.495-0.533-1.165-0.827-1.888-0.827c-1.352,0-2.48,1.058-2.569,2.408     c-0.01,0.146-0.082,0.28-0.199,0.367s-0.267,0.118-0.408,0.088c-0.729-0.16-1.42-0.114-2.112,0.146     c-1.45,0.544-2.463,1.918-2.521,3.419c-0.041,1.048,0.336,2.041,1.061,2.794c0.726,0.754,1.701,1.169,2.747,1.169h9.937     c0.276,0,0.5,0.224,0.5,0.5s-0.224,0.5-0.5,0.5h-9.937c-1.32,0-2.552-0.524-3.467-1.477c-0.915-0.952-1.391-2.204-1.339-3.526     c0.074-1.898,1.347-3.633,3.169-4.317c0.698-0.261,1.42-0.351,2.15-0.273c0.358-1.607,1.798-2.8,3.49-2.8     c0.58,0,1.148,0.144,1.656,0.41c0.005-0.311,0.037-0.623,0.094-0.934c0.424-2.285,2.336-4.078,4.649-4.36     c1.5-0.184,2.959,0.237,4.114,1.184c0.87,0.713,1.494,1.683,1.792,2.753c0.893-0.777,2.031-1.208,3.242-1.208     c2.737,0,4.964,2.227,4.964,4.965c0,0.059-0.001,0.118-0.004,0.176c1.989,0.615,3.391,2.481,3.391,4.597     C92.397,68.223,90.239,70.382,87.587,70.382z" style="fill:#472B29;"/>
		</g>
		<g>
			<path d="M89.332,61.857c-1.498-0.706-3.231-0.206-3.87,1.117c-0.079,0.164-0.138,0.334-0.177,0.506" style="fill:#FDFCEF;"/>
			<path d="M85.285,63.73c-0.019,0-0.037-0.002-0.056-0.006c-0.134-0.031-0.218-0.165-0.188-0.3     c0.044-0.192,0.11-0.38,0.196-0.558c0.698-1.443,2.583-1.998,4.202-1.234c0.125,0.059,0.179,0.208,0.12,0.333     c-0.059,0.126-0.209,0.177-0.333,0.12c-1.371-0.646-2.959-0.199-3.539,1c-0.069,0.144-0.123,0.296-0.159,0.453     C85.501,63.652,85.399,63.73,85.285,63.73z" style="fill:#472B29;"/>
		</g>
	</g>
	<g>
		<path d="M44.092,63.927l6.48,6.548c0.061,0.062,0.131,0.104,0.205,0.138c0.027,0.014,0.053,0.024,0.082,0.035    c0.048,0.015,0.097,0.024,0.147,0.03c0.036,0.005,0.068,0.022,0.106,0.022c0.04,0,0.074-0.017,0.112-0.023    c0.003,0,0.006,0,0.009-0.001c0.234,0.038,0.481-0.02,0.661-0.202l6.48-6.548c0.297-0.3,0.297-0.791,0-1.092    c-0.297-0.3-0.783-0.3-1.08,0l-5.308,5.459V49.443c-0.11-0.408-0.454-0.756-0.874-0.756c-0.42,0-0.764,0.347-0.688,0.772v18.606    l-5.251-5.23c-0.297-0.3-0.783-0.3-1.08,0C43.795,63.136,43.795,63.627,44.092,63.927z" style="fill:#F1BC19;"/>
		<path d="M51.112,48.688c0.42,0,0.764,0.347,0.874,0.756v18.851l5.308-5.459c0.148-0.15,0.344-0.225,0.54-0.225    s0.392,0.075,0.54,0.225c0.297,0.3,0.297,0.791,0,1.092l-6.48,6.548c-0.145,0.147-0.334,0.213-0.524,0.213    c-0.045,0-0.091-0.004-0.136-0.011c-0.003,0-0.006,0-0.009,0.001c-0.038,0.006-0.072,0.023-0.112,0.023    c-0.037,0-0.07-0.016-0.106-0.022c-0.05-0.006-0.099-0.015-0.147-0.03c-0.028-0.01-0.055-0.021-0.082-0.035    c-0.073-0.034-0.144-0.077-0.205-0.138l-6.48-6.548c-0.297-0.3-0.297-0.791,0-1.092c0.149-0.15,0.344-0.225,0.54-0.225    s0.392,0.075,0.54,0.225l5.251,5.23V49.46C50.348,49.035,50.692,48.688,51.112,48.688 M51.112,47.688    c-0.514,0-0.994,0.222-1.318,0.608c-0.288,0.344-0.42,0.788-0.371,1.232v16.13l-3.546-3.531c-0.328-0.331-0.772-0.517-1.246-0.517    c-0.474,0-0.918,0.185-1.251,0.522c-0.682,0.689-0.682,1.81,0,2.498l6.48,6.548c0.138,0.139,0.299,0.251,0.493,0.341    c0.036,0.019,0.097,0.045,0.164,0.069c0.111,0.036,0.204,0.059,0.299,0.073c0.078,0.02,0.175,0.038,0.294,0.038    c0.067,0,0.128-0.006,0.18-0.014c0.026,0.001,0.052,0.002,0.078,0.002c0.472,0,0.91-0.181,1.235-0.509l6.48-6.548    c0.682-0.689,0.682-1.81,0-2.498c-0.333-0.336-0.777-0.522-1.251-0.522c-0.474,0-0.918,0.185-1.251,0.522l-3.597,3.699V49.443    c0-0.088-0.012-0.176-0.035-0.261C52.713,48.302,51.957,47.688,51.112,47.688L51.112,47.688z" style="fill:#472B29;"/>
	</g>
</g>
<g id="cloud_upload">
	<g id="flag_380_">
	</g>
</g>
<g id="flag_lithuania">
	<g id="flag">
	</g>
</g>
<g id="flag_austria">
	<g id="flag_143_">
	</g>
</g>
<g id="flag_bulgaria">
	<g id="flag_145_">
	</g>
</g>
<g id="flag_hungary">
	<g id="flag_147_">
	</g>
</g>
<g id="flag_irland">
	<g id="flag_149_">
	</g>
</g>
<g id="flag_france">
	<g id="flag_151_">
	</g>
</g>
<g id="flag_italy">
	<g id="flag_153_">
	</g>
</g>
<g id="flag_uk">
	<g id="flag_155_">
	</g>
</g>
<g id="flag_germany">
	<g id="flag_157_">
	</g>
</g>
<g id="flag_poland">
	<g id="flag_159_">
	</g>
</g>
<g id="mailbox_lock">
</g>
<g id="mailbox_medal">
</g>
<g id="mailbox_search">
</g>
<g id="mailbox_coins">
</g>
<g id="mailbox_promotion">
</g>
<g id="mailbox_idea">
</g>
<g id="mailbox_pen">
</g>
<g id="mailbox_navigator">
</g>
<g id="mailbox_plane">
</g>
<g id="mailbox">
</g>
<g id="open_envelope_art">
</g>
<g id="open_envelope_love">
</g>
<g id="open_envelope_navigator">
</g>
<g id="open_envelope_math">
</g>
<g id="open_envelope_idea">
</g>
<g id="open_envelope_law">
</g>
<g id="open_envelope_stamp">
</g>
<g id="grey_envelope_medal">
</g>
<g id="trash_delete">
</g>
<g id="trash_add">
</g>
</svg>
