<?xml version="1.0" ?><!DOCTYPE svg  PUBLIC '-//W3C//DTD SVG 1.1//EN'  'http://www.w3.org/Graphics/SVG/1.1/DTD/svg11.dtd'><svg enable-background="new 0 0 87 56" height="56px" id="Layer_1" version="1.1" viewBox="0 0 87 56" width="87px" xml:space="preserve" xmlns="http://www.w3.org/2000/svg" xmlns:xlink="http://www.w3.org/1999/xlink"><g><path d="M83.407,1H3.593C2.161,1,1,2.059,1,3.365v49.271C1,53.941,2.161,55,3.593,55h79.814   C84.84,55,86,53.941,86,52.636V3.365C86,2.059,84.84,1,83.407,1z" fill="#F1F2F2"/><linearGradient gradientTransform="matrix(0 26.9963 -0.8337 0 -75.0983 3915.3569)" gradientUnits="userSpaceOnUse" id="SVGID_1_" x1="-145.1553" x2="-142.8354" y1="-142.2559" y2="-142.2559"><stop offset="0" style="stop-color:#1A1F46"/><stop offset="0.3515" style="stop-color:#1A1F46"/><stop offset="0.4711" style="stop-color:#2B4A83"/><stop offset="0.5515" style="stop-color:#3564A8"/><stop offset="0.6082" style="stop-color:#3464A4"/><stop offset="0.662" style="stop-color:#326499"/><stop offset="0.7148" style="stop-color:#2F6386"/><stop offset="0.7669" style="stop-color:#2A636B"/><stop offset="0.8181" style="stop-color:#246248"/><stop offset="0.8485" style="stop-color:#206230"/><stop offset="1" style="stop-color:#206230"/></linearGradient><path d="M83.407,1H3.593C2.161,1,1,2.059,1,3.365v49.271C1,53.941,2.161,55,3.593,55h79.814   C84.84,55,86,53.941,86,52.636V3.365C86,2.059,84.84,1,83.407,1z" fill="url(#SVGID_1_)"/><path d="M27.091,26.605h18.228c-0.161-3.6-1.081-7.312-3.866-9.696c-3.316-2.839-9.125-3.894-14.314-3.894   c-5.404,0-11.379,1.157-14.713,4.203c-2.873,2.624-3.496,6.848-3.496,10.643c0,3.976,1.216,8.598,4.335,11.262   c3.316,2.832,8.689,3.584,13.874,3.584c5.034,0,10.488-0.848,13.783-3.537c3.289-2.688,4.425-7.214,4.425-11.309   c0-0.006,0-0.012,0-0.018H27.091V26.605z" fill="#FFFFFF"/><path d="M46.541,27.843v14.202h25.355v-0.02c3.711-0.185,6.663-3.241,6.663-6.996c0-3.754-2.952-7.006-6.663-7.193   v0.007H46.541z" fill="#FFFFFF"/><path d="M78.095,20.096c0-3.618-2.871-6.486-6.486-6.486c-0.249,0-0.558-0.046-0.802-0.02H46.541v13.016h25.565   C75.458,26.317,78.095,23.521,78.095,20.096z" fill="#FFFFFF"/></g></svg>